<?xml version="1.0" encoding="UTF-8" standalone="no"?>
<!-- Created with Inkscape (http://www.inkscape.org/) -->

<svg
   xmlns:dc="http://purl.org/dc/elements/1.1/"
   xmlns:cc="http://creativecommons.org/ns#"
   xmlns:rdf="http://www.w3.org/1999/02/22-rdf-syntax-ns#"
   xmlns:svg="http://www.w3.org/2000/svg"
   xmlns="http://www.w3.org/2000/svg"
   xmlns:sodipodi="http://sodipodi.sourceforge.net/DTD/sodipodi-0.dtd"
   xmlns:inkscape="http://www.inkscape.org/namespaces/inkscape"
   width="400"
   height="400"
   id="svg2"
   version="1.1"
   inkscape:version="0.48.1 r9760"
   sodipodi:docname="template.svg">
  <defs
     id="defs4">
    <linearGradient
       id="linearGradient3772">
      <stop
         style="stop-color:#8e8e8e;stop-opacity:1;"
         offset="0"
         id="stop3774" />
      <stop
         style="stop-color:#8e8e8e;stop-opacity:0;"
         offset="1"
         id="stop3776" />
    </linearGradient>
    <filter
       inkscape:collect="always"
       id="filter3804">
      <feGaussianBlur
         inkscape:collect="always"
         stdDeviation="7.7415623"
         id="feGaussianBlur3806" />
    </filter>
  </defs>
  <sodipodi:namedview
     id="base"
     pagecolor="#ffffff"
     bordercolor="#666666"
     borderopacity="1.0"
     inkscape:pageopacity="0.0"
     inkscape:pageshadow="2"
     inkscape:zoom="1.4"
     inkscape:cx="115.94643"
     inkscape:cy="164.32679"
     inkscape:document-units="px"
     inkscape:current-layer="layer1"
     showgrid="false"
     inkscape:window-width="1918"
     inkscape:window-height="1038"
     inkscape:window-x="0"
     inkscape:window-y="19"
     inkscape:window-maximized="1" />
  <metadata
     id="metadata7">
    <rdf:RDF>
      <cc:Work
         rdf:about="">
        <dc:format>image/svg+xml</dc:format>
        <dc:type
           rdf:resource="http://purl.org/dc/dcmitype/StillImage" />
        <dc:title></dc:title>
      </cc:Work>
    </rdf:RDF>
  </metadata>
  <g
     inkscape:label="Layer 1"
     inkscape:groupmode="layer"
     id="layer1"
     transform="translate(0,-652.36218)">
    <path
       sodipodi:type="arc"
       style="fill:none;stroke:none"
       id="path2987"
       sodipodi:cx="29.294424"
       sodipodi:cy="32.809551"
       sodipodi:rx="20.203051"
       sodipodi:ry="20.708128"
       d="m 49.497475,32.809551 c 0,11.436784 -9.045214,20.708128 -20.203051,20.708128 -11.157837,0 -20.2030506,-9.271344 -20.2030506,-20.708128 0,-11.436783 9.0452136,-20.708128 20.2030506,-20.708128 11.157837,0 20.203051,9.271345 20.203051,20.708128 z"
       transform="translate(0,652.36218)" />
    <path
       sodipodi:type="arc"
       style="fill:#000000;fill-opacity:1;stroke:none"
       id="path2989"
       sodipodi:cx="200.26274"
       sodipodi:cy="194.93903"
       sodipodi:rx="196.97975"
       sodipodi:ry="196.97975"
       d="m 397.24249,194.93903 c 0,108.78891 -88.19084,196.97975 -196.97975,196.97975 -108.788912,0 -196.9797505,-88.19084 -196.9797505,-196.97975 0,-108.788917 88.1908385,-196.9797557 196.9797505,-196.9797557 108.78891,0 196.97975,88.1908387 196.97975,196.9797557 z"
       transform="translate(0,657.41294)" />
    <path
       sodipodi:type="arc"
       style="fill:#8e8e8e;fill-opacity:0.63736266;stroke:none"
       id="path2989-1"
       sodipodi:cx="200.26274"
       sodipodi:cy="194.93903"
       sodipodi:rx="196.97975"
       sodipodi:ry="196.97975"
       d="m 397.24249,194.93903 c 0,108.78891 -88.19084,196.97975 -196.97975,196.97975 -108.788912,0 -196.9797505,-88.19084 -196.9797505,-196.97975 0,-108.788917 88.1908385,-196.9797557 196.9797505,-196.9797557 108.78891,0 196.97975,88.1908387 196.97975,196.9797557 z"
       transform="translate(0,657.41294)" />
    <path
       sodipodi:type="arc"
       style="fill:none;stroke:#ffffff;stroke-opacity:1;stroke-width:9;stroke-miterlimit:4;stroke-dasharray:none;filter:url(#filter3804);opacity:0.84888889"
       id="path2989-1-8"
       sodipodi:cx="200.26274"
       sodipodi:cy="194.93903"
       sodipodi:rx="196.97975"
       sodipodi:ry="196.97975"
       d="m 397.24249,194.93903 a 196.97975,196.97975 0 1 1 -393.9595005,0 196.97975,196.97975 0 1 1 393.9595005,0 z"
       transform="matrix(0.9,0,0,0.9,20.026274,676.90684)" />
  </g>
  <g
     inkscape:groupmode="layer"
     id="layer2"
     inkscape:label="genblur" />
</svg>
