<?xml version="1.0" encoding="UTF-8" standalone="no"?>
<!-- Created with Inkscape (http://www.inkscape.org/) -->

<svg
   xmlns:dc="http://purl.org/dc/elements/1.1/"
   xmlns:cc="http://creativecommons.org/ns#"
   xmlns:rdf="http://www.w3.org/1999/02/22-rdf-syntax-ns#"
   xmlns:svg="http://www.w3.org/2000/svg"
   xmlns="http://www.w3.org/2000/svg"
   xmlns:sodipodi="http://sodipodi.sourceforge.net/DTD/sodipodi-0.dtd"
   xmlns:inkscape="http://www.inkscape.org/namespaces/inkscape"
   height="542.35175"
   id="svg1"
   inkscape:export-filename="/home/jofo/pix/mina/inkscape/handgranat3.png"
   inkscape:export-xdpi="141.17168"
   inkscape:export-ydpi="141.17168"
   inkscape:version="0.48.2 r9819"
   sodipodi:docname="grenade.svg"
   sodipodi:version="0.32"
   width="473.94705"
   version="1.1">
  <metadata
     id="metadata3856">
    <rdf:RDF>
      <cc:Work
         rdf:about="">
        <dc:title>kallisti-grenade 1</dc:title>
        <dc:description />
        <dc:subject>
          <rdf:Bag>
            <rdf:li>religion</rdf:li>
            <rdf:li>discordia</rdf:li>
            <rdf:li>explosive</rdf:li>
            <rdf:li>apple</rdf:li>
            <rdf:li>fish</rdf:li>
          </rdf:Bag>
        </dc:subject>
        <dc:publisher>
          <cc:Agent
             rdf:about="http://www.openclipart.org/">
            <dc:title>Open Clip Art Library</dc:title>
          </cc:Agent>
        </dc:publisher>
        <dc:creator>
          <cc:Agent>
            <dc:title>Nurbldoff</dc:title>
          </cc:Agent>
        </dc:creator>
        <dc:rights>
          <cc:Agent>
            <dc:title>Nurbldoff</dc:title>
          </cc:Agent>
        </dc:rights>
        <dc:date />
        <dc:format>image/svg+xml</dc:format>
        <dc:type
           rdf:resource="http://purl.org/dc/dcmitype/StillImage" />
        <cc:license
           rdf:resource="http://web.resource.org/cc/PublicDomain" />
        <dc:language>en</dc:language>
      </cc:Work>
      <cc:License
         rdf:about="http://web.resource.org/cc/PublicDomain">
        <cc:permits
           rdf:resource="http://web.resource.org/cc/Reproduction" />
        <cc:permits
           rdf:resource="http://web.resource.org/cc/Distribution" />
        <cc:permits
           rdf:resource="http://web.resource.org/cc/DerivativeWorks" />
      </cc:License>
    </rdf:RDF>
  </metadata>
  <defs
     id="defs3" />
  <sodipodi:namedview
     bordercolor="#666666"
     borderopacity="1.0"
     id="base"
     inkscape:current-layer="svg1"
     inkscape:cx="136.21907"
     inkscape:cy="141.58214"
     inkscape:pageopacity="0.0"
     inkscape:pageshadow="2"
     inkscape:window-height="576"
     inkscape:window-width="1024"
     inkscape:window-x="0"
     inkscape:window-y="24"
     inkscape:zoom="0.30699633"
     pagecolor="#ffffff"
     showgrid="false"
     inkscape:window-maximized="1"
     fit-margin-top="0"
     fit-margin-left="0"
     fit-margin-right="0"
     fit-margin-bottom="0" />
  <path
     d="m 218.85959,522.44544 c -29.24634,-2.7498 -66.45968,-15.2001 -85.36183,-28.5591 -8.18495,-5.7846 -21.46412,-18.4982 -29.06238,-27.82441 -10.930944,-13.41685 -19.075794,-25.66256 -19.075794,-28.68029 0,-2.12043 -0.63587,-3.11097 -2.43655,-3.79558 -4.12467,-1.5682 -17.25573,-22.65904 -25.99383,-41.75075 -4.62864,-10.11302 -10.56962,-26.4026 -10.56962,-28.98084 0,-0.73276 1.17444,-3.19272 2.60987,-5.46659 l 2.60988,-4.13431 -5.08072,-4.59582 c -4.94447,-4.47257 -5.10698,-4.79696 -6.05955,-12.09582 -4.04957,-31.02859 -1.22988,-59.45164 8.50344,-85.71639 l 3.78603,-10.21639 4.31553,-0.64715 c 2.37353,-0.35594 4.31552,-0.83899 4.31552,-1.07345 0,-0.23446 -0.9,-2.19044 -2,-4.34662 -1.1,-2.15618 -2,-4.66523 -2,-5.57568 0,-5.55451 20.27897,-28.9614 34.14487,-39.41153 8.766944,-6.60725 24.652314,-16.62184 27.209034,-17.15333 1.1022,-0.22912 3.30109,-3.98534 6.06442,-10.35946 8.75681,-20.19911 18.04507,-33.82224 34.2131,-50.18053 l 11.13143,-11.2624 0.36857,-12.242112 0.36858,-12.24212 -10.64333,-6.03642 c -10.61907,-6.02266 -10.64471,-6.04642 -11.25,-10.42599 -0.85643,-6.19674 -0.75518,-21.11028 0.14333,-21.11117 0.4125,-4.1e-4 15.6,-2.23165 33.75,-4.95832 l 33,-4.95757 46.35833,4.27621 c 42.37194,3.90849 46.49951,4.44933 48,6.28949 0.90292,1.10731 7.71667,6.89013 15.14167,12.8507 7.425,5.96057 13.85744,11.14148 14.29432,11.51314 0.43688,0.37165 1.36684,7.62243 2.06659,16.11283 l 1.27227,15.4371 22.53393,22.468582 c 12.39367,12.35772 26.45557,27.41858 31.24869,33.46858 24.54021,30.97533 38.71555,59.04417 44.44179,88 6.40568,32.39157 4.93848,72.11264 -3.97836,107.70438 -8.365,33.38906 -14.58951,49.03718 -32.95275,82.84158 l -8.9881,16.54596 -7.21919,3.57081 c -3.97055,1.96394 -8.69392,3.8942 -10.49636,4.28946 -2.65686,0.58263 -4.2494,2.16941 -8.41363,8.38323 -11.64584,17.37779 -27.6638,34.01839 -39.53296,41.06979 -14.18067,8.4246 -37.70071,14.5092 -69.9429,18.0943 -18.84721,2.0957 -26.24296,2.2558 -40.83334,0.884 z m -7.33247,-25.5776 -1.84836,-9.0116 21.59042,-0.6819 c 26.34077,-0.832 29.09041,-1.1838 29.09041,-3.7218 0,-1.8091 -1.20677,-1.8906 -28,-1.8906 -15.4,0 -28,0.1854 -28,0.412 0,2.7559 3.27853,16.2397 4.56358,18.7689 1.96,3.8576 3.56734,6.0215 4.08686,5.502 0.201,-0.201 -0.46631,-4.4207 -1.48291,-9.377 z m -48.20215,-5.8708 c -3.3929,-6.3607 -5.95436,-11.7795 -5.69215,-12.0417 0.38627,-0.3862 12.01465,1.9498 25.5193,5.1267 2.2089,0.5197 2.2352,0.4518 0.72087,-1.8593 -1.2703,-1.9387 -3.24392,-2.723 -10.29254,-4.0899 -4.79647,-0.9302 -12.02357,-2.599 -16.0602,-3.7084 -4.03664,-1.10943 -7.5544,-1.8021 -7.81724,-1.53927 -0.6064,0.60641 3.92069,9.59517 8.24449,16.36977 3.14838,4.933 10.13078,13.307 11.09559,13.307 0.24793,0 -2.32523,-5.2042 -5.71812,-11.5649 z m -15.07417,1.8149 c -1.24955,-2.0625 -5.02197,-8.025 -8.38315,-13.25 -3.36119,-5.225 -7.16966,-11.38807 -8.46328,-13.6957 -2.07416,-3.70003 -3.87817,-4.9812 -15.27038,-10.84469 -7.1051,-3.65695 -13.07966,-6.4877 -13.27679,-6.29056 -0.19714,0.19714 2.64775,4.60921 6.32198,9.8046 8.98518,12.70513 22.80873,26.63255 32.68041,32.92595 4.4,2.805 8.1492,5.1002 8.33156,5.1003 0.18236,0 -0.6908,-1.6874 -1.94035,-3.7499 z m 131.18615,-4.2949 c 0.69245,-3.8747 1.62169,-7.2691 2.06497,-7.5431 0.44328,-0.2739 6.74208,-2.2782 13.99732,-4.4539 7.25525,-2.1757 13.42438,-4.18881 13.70919,-4.47362 3.90176,-3.90176 -22.49822,-0.27236 -28.95804,3.98112 -3.79568,2.4992 -4.8908,5.3155 -4.8908,12.5776 0,9.1868 2.42922,9.1343 4.07736,-0.0881 z m -75.12091,-23.20511 c -0.024,-0.6875 -0.40574,-3.11992 -0.84842,-5.40537 l -0.80487,-4.15537 10.80409,-4.14113 c 14.02422,-5.37537 20.99077,-10.13993 31.5499,-21.5776 7.15072,-7.74567 9.24159,-9.43155 12.23381,-9.86421 12.80106,-1.85096 12.10904,-1.59429 12.10904,-4.4911 l 0,-2.70899 -11.75,1.23874 c -12.67828,1.3366 -47.57967,1.62567 -61.05644,0.5057 -8.00796,-0.6655 -8.28648,-0.61772 -7.75123,1.32951 0.30536,1.1109 2.3455,10.56982 4.53364,21.01982 5.31491,25.38261 6.57982,29.5 9.06277,29.5 1.07869,0 1.94166,-0.5625 1.91771,-1.25 z m -25.98114,-6.32176 c -1.11643,-3.24495 -3.61492,-12.65629 -5.5522,-20.91408 -1.93729,-8.25779 -4.1855,-17.30291 -4.99604,-20.10028 l -1.4737,-5.08612 -12.22669,-2.82508 c -6.72467,-1.5538 -18.5089,-4.53283 -26.18716,-6.62007 -7.67826,-2.08724 -14.04674,-3.7022 -14.15218,-3.5888 -0.44667,0.48043 13.6322,34.84315 17.08759,41.70619 5.73046,11.38176 6.82989,12.6296 11.74327,13.32849 2.35499,0.33497 11.7068,2.82694 20.7818,5.53769 9.075,2.71076 16.61367,4.82365 16.75259,4.69531 0.13892,-0.12833 -0.66085,-2.8883 -1.77728,-6.13325 z m 112.91405,-21.38245 5.61699,-23.45421 22.72778,-6.54579 c 20.36549,-5.86543 25.23425,-7.91075 23.34006,-9.80493 -0.62009,-0.62009 -51.83972,10.60017 -52.6725,11.53853 -0.35174,0.39633 -2.30013,11.07061 -4.32975,23.72061 -2.02963,12.65 -3.94856,24.27665 -4.26429,25.83701 -0.50832,2.51206 -0.31413,2.7984 1.69533,2.5 2.09224,-0.3107 2.70785,-2.16783 7.88638,-23.79122 z m -173.05603,5.1796 c -0.18333,-0.42603 -3.07005,-6.16353 -6.41494,-12.75 -3.34488,-6.58646 -8.72226,-17.92941 -11.949744,-25.20654 l -5.86813,-13.23115 -6.05026,-3.67662 c -9.97307,-6.06044 -24.83179,-16.39088 -28.30026,-19.67559 -1.7875,-1.6928 -3.25,-2.7963 -3.25,-2.45222 0,1.93632 10.57385,22.90065 20.24926,40.14736 l 11.15305,19.88062 7.34623,5.11938 c 6.945334,4.83999 20.774834,12.55483 22.584794,12.59902 0.45834,0.0112 0.68334,-0.32822 0.5,-0.75426 z M 365.1816,429.38709 c 20.47495,-30.18854 34.40854,-93.20511 30.25341,-136.82516 -3.36311,-35.30554 -12.61646,-59.79138 -35.49287,-93.91981 -20.33056,-30.33037 -28.06999,-38.94656 -54.08255,-60.2093 -7.15,-5.84442 -14.70719,-12.14377 -16.79376,-13.99855 l -3.79376,-3.37234 -1.33959,-18.96368 -1.33958,-18.963682 -13.36666,-13.09103 -13.36665,-13.09103 -14.5,-1.69276 c -21.24541,-2.48022 -68.45519,-7.42468 -76.14964,-7.97543 l -6.64964,-0.47597 -0.60036,3.00179 c -1.58059,7.90296 -1.02217,9.27524 5.73713,14.09858 4.78218,3.41249 7.42038,4.59975 10.75,4.83777 l 4.41251,0.31544 -0.25822,12.72342 -0.25821,12.72342 6.19989,-3.63367 c 3.40995,-1.99851 9.56895,-4.81496 13.68667,-6.25877 4.11773,-1.44382 7.64169,-3.08987 7.83104,-3.6579 0.18934,-0.56803 -2.15293,-2.75265 -5.20504,-4.85472 -3.05211,-2.10207 -5.32409,-4.04715 -5.04885,-4.32239 0.27525,-0.27525 11.47326,0.7833 24.88447,2.35232 l 24.38403,2.85277 14.32901,13.61809 14.32901,13.618092 0.66069,11.20587 c 0.79713,13.51991 -0.71953,11.52614 23.9191,31.44369 29.43917,23.79825 34.72578,29.45435 51.78154,55.40071 24.00854,36.5234 34.40297,62.24583 37.31364,92.33769 1.35658,14.02502 0.84813,24.9187 -2.11554,45.32598 -5.06119,34.85032 -9.28587,50.32855 -26.50976,97.1254 -0.88911,2.4157 1.4913,-0.43954 6.39854,-7.67484 z M 249.85959,393.57356 c 7.7,-0.53395 16.06296,-1.23698 18.58435,-1.56228 l 4.58435,-0.59146 1.24745,-13.17895 c 0.68611,-7.24841 1.49927,-26.40208 1.80704,-42.56369 l 0.55958,-29.38474 -4.39139,0.65425 c -18.62229,2.77447 -51.53461,3.53676 -69.39138,1.60718 -4.95,-0.53489 -12.09694,-1.27204 -15.88208,-1.63811 l -6.88208,-0.66558 0.52343,27.90588 c 0.43134,22.99652 2.89182,56.78894 4.23903,58.21929 0.16236,0.17237 4.95416,0.67082 10.64845,1.10765 15.13649,1.16118 38.35599,1.19987 54.35325,0.0906 z m -90.07124,-5.89636 c 0.30074,-0.48661 -0.20244,-6.22411 -1.11818,-12.75 -1.2371,-8.81609 -1.68368,-19.65021 -1.73777,-42.15878 l -0.0728,-30.29351 -2.5,-0.58862 c -20.91207,-4.9237 -36.1833,-9.84986 -46.07732,-14.86354 -3.76441,-1.90757 -5.39937,-2.30755 -5.92906,-1.45049 -2.02981,3.28429 -3.489124,20.95617 -3.426154,41.48967 0.0683,22.27387 1.444764,33.56815 5.602174,45.96785 l 1.33036,3.96784 13.5,4.29424 c 7.425,2.36183 16.425,4.92711 20,5.70063 7.39455,1.59994 19.61007,2.00937 20.42876,0.68471 z m 139.9573,0.0691 c 0.27725,-0.4486 0.94421,-5.11757 1.48213,-10.37549 l 0.97804,-9.55987 5.04677,-5.04677 c 10.64299,-10.64298 19.3795,-27.27314 26.37333,-50.20223 l 4.42278,-14.5 9.15545,-4.4433 c 8.24241,-4.0002 9.15544,-4.71743 9.15544,-7.19205 l 0,-2.74874 -7.75,3.87479 c -4.2625,2.13113 -13.375,5.51463 -20.25,7.51889 -6.875,2.00426 -16.2125,4.74906 -20.75,6.09957 l -8.25,2.45545 0,14.56731 c 0,16.12767 -1.54209,43.08101 -3.41095,59.61808 l -1.21486,10.75 2.25389,0 c 1.23964,0 2.48073,-0.36704 2.75798,-0.81564 z M 84.954466,363.81193 c -1.26043,-4.08549 -3.56107,-21.56643 -4.18072,-31.76631 -0.7835,-12.89721 0.85454,-34.23025 3.66055,-47.67298 l 1.9435,-9.31071 -2.6833,-2 c -8.05905,-6.00681 -20.36434,-16.73259 -22.27482,-19.41561 -1.20795,-1.69641 -2.57895,-3.08439 -3.04665,-3.08439 -0.46771,0 -1.78434,2.8125 -2.92584,6.25 -6.22859,18.75659 -8.94902,44.34418 -7.12955,67.05836 0.62524,7.8054 1.3587,14.94107 1.62991,15.85704 1.03512,3.49592 23.27254,21.12786 30.74785,24.37981 4.2089,1.83098 4.90024,1.78306 4.25907,-0.29521 z m 289.192724,-2 c 3.04529,-2.65248 5.54594,-23.9646 5.54406,-47.25 -0.001,-18.35099 -1.77803,-37 -3.5247,-37 -0.49996,0 -1.60855,1.67422 -2.46353,3.72049 -1.58537,3.79433 -1.54808,5.09284 0.59676,20.77951 1.91331,13.99336 0.64196,39.70936 -2.83033,57.25 -0.92015,4.64828 -0.37405,5.15814 2.67774,2.5 z m -119.2876,-74.25456 c 7.7,-0.54804 15.52664,-1.25363 17.39253,-1.56799 l 3.39254,-0.57156 -0.67972,-9.66978 c -1.16652,-16.59512 -4.85228,-36.18618 -10.93384,-58.11706 l -2.33795,-8.43094 -6.41678,0.43094 c -3.52923,0.23702 -17.78186,0.39614 -31.6725,0.35359 l -25.25573,-0.0774 -3.40334,10.57737 c -4.32809,13.45145 -7.94431,29.78164 -10.53571,47.57736 -2.63301,18.08154 -2.68548,17.29507 1.2005,17.99348 11.95681,2.14893 48.90158,2.95023 69.25,1.50196 z m 59.5,-8.49116 c 15.56206,-3.27096 20.97271,-4.94747 28.19417,-8.73608 9.57772,-5.02477 9.47013,-4.60912 4.75363,-18.36352 -6.93753,-20.23149 -15.98715,-37.61128 -27.68579,-53.17056 l -5.46304,-7.26589 -5.36075,3.06712 c -2.94841,1.68691 -9.99068,4.82401 -15.64948,6.97134 -6.0452,2.29395 -10.24358,4.43815 -10.17924,5.19877 0.0602,0.712 1.9575,8.49454 4.21615,17.29454 5.46012,21.27329 8.75026,36.89214 10.27183,48.76203 1.03295,8.05811 1.52638,9.68414 2.82694,9.31581 0.86657,-0.24541 7.20058,-1.62851 14.07558,-3.07356 z m -152.89184,-9.07653 c 2.39166,-15.60622 6.53758,-33.57701 9.35864,-40.56568 0.53263,-1.3195 -1.32567,-0.95767 -9.55855,1.86111 -13.83942,4.73836 -22.2925,4.86206 -31.18145,0.45628 -3.37644,-1.67351 -6.42667,-2.86495 -6.77831,-2.64763 -2.01811,1.24727 -15.94849,33.03588 -15.94849,36.39388 0,3.16925 45.58913,17.03817 51.46674,15.65697 0.53171,-0.12494 1.72035,-5.14466 2.64142,-11.15493 z M 94.754026,251.04407 c 1.56172,-3.58482 6.821354,-12.81105 11.688074,-20.50273 l 8.84858,-13.98487 -1.0046,-5.43439 c -0.94163,-5.09375 -0.0916,-17.0507 1.65106,-23.22453 0.44317,-1.57004 0.0319,-2.47428 -1.49782,-3.29295 -1.8503,-0.99025 -3.13606,-0.32639 -10.49085,5.41665 -10.398374,8.11964 -26.671384,25.0457 -33.038644,34.3645 l -4.79221,7.01364 4.60107,5.97943 c 4.22222,5.4871 19.22601,20.18311 20.6058,20.18311 0.32453,0 1.86782,-2.93304 3.42954,-6.51786 z m 275.014084,5.66588 c 0.61864,-1.00099 -7.58493,-17.51171 -10.50768,-21.14802 -1.69485,-2.10864 -1.62912,-1.71728 0.41994,2.5 1.33615,2.75 3.47415,8.2625 4.75112,12.25 2.10316,6.56739 3.90033,8.72199 5.33662,6.39802 z M 162.56727,223.34197 c 11.38787,-4.66906 20.83305,-11.04323 29.65153,-20.01059 17.58631,-17.88322 30.80543,-41.03792 36.36752,-63.70157 1.55206,-6.32413 2.12505,-11.97311 2.18799,-21.57097 0.0755,-11.51421 -0.15166,-13.37812 -1.98399,-16.27844 -2.00615,-3.175442 -2.12119,-3.217992 -3.77116,-1.39479 -1.48642,1.64248 -1.55602,2.56071 -0.54975,7.2528 1.59286,7.42726 0.53807,24.65559 -2.06713,33.76336 -4.20177,14.68937 -14.68386,32.78951 -27.43618,47.37592 -17.59039,20.12031 -31.22111,28.38107 -48.60651,29.45748 -8.89266,0.55059 -12.72341,-1.23518 -15.83983,-7.38401 -5.64853,-11.1448 -2.95305,-25.83391 9.31994,-50.78923 12.55855,-25.53595 35.08804,-50.29684 54.16286,-59.52735 3.37863,-1.634952 7.01563,-2.972652 8.08222,-2.972652 1.3649,0 2.27549,-1.09558 3.07455,-3.69914 0.62441,-2.03453 0.9727,-3.86175 0.77398,-4.06047 -0.93473,-0.93473 -16.02758,5.93725 -22.33663,10.17017 -13.20995,8.862912 -29.63277,25.761072 -39.93359,41.089442 -8.25902,12.29002 -16.7179,31.76002 -20.31255,46.75387 -2.15471,8.98765 -2.61133,21.97042 -0.92962,26.43103 1.49584,3.96759 6.73128,9.2203 11.43867,11.47639 6.41257,3.07334 17.6843,2.13837 28.70768,-2.38125 z m 232.2996,-11.13135 c 5.83514,-2.71729 10.76838,-7.9239 12.51111,-13.2044 0.7351,-2.2274 1.0328,-6.48482 0.73978,-10.58006 -0.40332,-5.63692 -1.32839,-8.49502 -5.21378,-16.10852 -2.5979,-5.09064 -7.15044,-12.63071 -10.11673,-16.75571 -6.93886,-9.64933 -28.30143,-30.82224 -40.16966,-39.81302 l -9.24201,-7.00129 -5.25799,1.35905 c -2.8919,0.74747 -12.008,2.50923 -20.258,3.91501 -8.25,1.40579 -17.18576,3.12795 -19.85725,3.82704 l -4.85724,1.27107 18.85724,15.64523 c 32.65118,27.08961 41.73607,37.18645 58.70744,65.24681 l 8.80015,14.5501 5.17483,-0.01 c 3.30462,-0.006 6.98449,-0.85248 10.18211,-2.34154 z m -241.18688,-2.14393 c 3.15733,-0.82238 7.63937,-2.47366 9.9601,-3.66952 l 4.2195,-2.1743 -11.26907,-2.84354 -11.26908,-2.84355 -3.23092,3.64595 c -4.89104,5.51929 -5.28079,6.50497 -3.17967,8.04134 2.39587,1.7519 7.65661,1.6962 14.76914,-0.15638 z m 94.28343,-14.75476 c -1.42035,-5.0772 -2.87829,-16.59239 -2.29366,-18.11591 0.95031,-2.47646 4.48447,-1.95872 7.28941,1.06786 1.37724,1.48607 4.16826,5.77968 6.20225,9.54136 l 3.69817,6.83942 4.9497,-0.66267 c 5.61873,-0.75224 12.75857,-2.6716 12.72229,-3.42006 -0.0133,-0.275 -1.90067,-4.41059 -4.19409,-9.1902 -2.29342,-4.77961 -3.8751,-9.16711 -3.51486,-9.75 1.5152,-2.45164 5.02024,-0.61902 12.5198,6.54601 l 7.96091,7.60582 5.02813,-3.69098 c 2.76546,-2.03005 5.02812,-4.02323 5.02812,-4.42931 0,-0.40607 -3.0375,-2.82708 -6.75,-5.38002 -3.7125,-2.55294 -11.025,-8.51041 -16.25,-13.23883 -7.08267,-6.40954 -10.00891,-8.46313 -11.5,-8.07054 -12.20369,3.21313 -24.36953,5.68914 -30.50932,6.20929 l -7.50932,0.63617 -4.37147,8.97931 c -2.4043,4.93863 -7.43876,13.63325 -11.18768,19.32139 l -6.81623,10.34207 4.19701,0.3802 c 2.30836,0.20911 11.33699,0.45882 20.06364,0.55491 l 15.86663,0.17471 z m -59.38523,-10 c 10.01339,-11.34615 19.56314,-25.6761 18.38328,-27.58516 -0.30422,-0.49223 -2.33274,-1.13366 -4.50783,-1.4254 -2.17509,-0.29174 -8.26578,-1.75349 -13.53486,-3.24832 l -9.58015,-2.71789 -8.5331,7.86339 c -4.6932,4.32486 -11.40558,10.40335 -14.9164,13.50776 l -6.38331,5.64437 2.17689,1.97328 c 1.19728,1.0853 3.44526,2.77982 4.9955,3.7656 l 2.81862,1.79232 7.16374,-7.27816 c 7.13462,-7.24857 10.07201,-9.20778 12.44902,-8.3034 2.02394,0.77005 1.50122,2.69163 -3.23718,11.90022 -2.46795,4.7962 -4.38045,8.78825 -4.25,8.87123 0.7807,0.49657 7.51004,2.30276 8.89728,2.38807 0.91306,0.0562 4.53938,-3.16041 8.0585,-7.14791 z m -30.86987,-28.44889 c 3.2168,-2.64061 7.14415,-6.42805 8.72744,-8.41654 2.85441,-3.58489 2.86202,-3.63053 0.90127,-5.40498 -1.24963,-1.13091 -1.9924,-3.11272 -2.01808,-5.38458 l -0.0406,-3.59501 -3.07453,3.5 c -6.08894,6.93157 -16.84419,24.63139 -16.84419,27.72033 0,0.8386 6.31968,-3.47008 12.34873,-8.41922 z M 214.469,142.81193 c 1.48421,-3.85085 3.79168,-16.24973 3.02441,-16.25127 -0.3486,-7e-4 -8.50553,-1.09845 -18.12651,-2.43944 -17.31941,-2.41402 -17.53486,-2.41951 -21.75,-0.55496 l -4.25731,1.88321 0,6.39934 0,6.39935 7.75,2.09007 c 8.06021,2.17374 17.23964,3.9748 23.25,4.5618 8.68877,0.84858 9.00253,0.78378 10.10941,-2.0881 z m 32.76702,1.26856 c 5.42479,-0.81479 10.48433,-1.67721 11.24342,-1.91648 0.75908,-0.23927 2.64484,-0.71302 4.19056,-1.05277 l 2.81042,-0.61774 -2.23407,-3.71578 c -1.22874,-2.04369 -2.29628,-3.81864 -2.37231,-3.94435 -0.235,-0.38856 -22.72384,-3.39965 -22.97432,-3.07609 -0.12971,0.16756 -0.9137,3.79215 -1.74218,8.05465 -1.25661,6.46517 -1.28075,7.75 -0.14556,7.75 0.74842,0 5.79924,-0.66665 11.22404,-1.48144 z m 10.46209,-27.76331 -0.16149,-8.24554 -8.83851,-3.69301 c -5.46667,-2.28414 -9.19784,-3.33821 -9.78038,-2.76299 -0.91216,0.90069 -0.8702,18.96756 0.0462,19.88395 0.4868,0.4868 13.57157,2.77529 16.89568,2.955 1.85924,0.10052 1.98863,-0.47219 1.83852,-8.13741 z m -56.81284,-3.70559 c -0.83912,-1.62268 -1.52568,-3.64768 -1.52568,-4.5 0,-2.32542 -1.93699,-1.85724 -7.81602,1.88916 l -5.31603,3.38762 5.31603,0.96799 c 2.92381,0.53239 6.56508,1.02144 8.0917,1.08678 2.75776,0.11803 2.76583,0.0997 1.25,-2.83155 z m 16.58675,-14.035912 c 2.9521,-5.25255 8.93969,-9.44937 12.06582,-8.45717 1.27274,0.40395 2.86399,1.45647 3.53611,2.33894 1.03322,1.35659 1.22695,1.03773 1.25384,-2.06373 0.0436,-5.03432 -0.74302,-6.66398 -4.03972,-8.36877 -5.93639,-3.06983 -13.03472,-1.21617 -15.75405,4.11401 -1.77078,3.47091 -2.51049,11.92653 -1.24948,14.282752 0.62998,1.17712 1.32579,2.14022 1.54625,2.14022 0.22046,0 1.40901,-1.79381 2.64123,-3.986252 z m 94.30313,-26.88984 19.91556,-5.83039 -12.28689,-10.17564 c -7.82322,-6.47895 -12.87857,-9.99782 -13.91556,-9.68616 -0.89577,0.26921 -9.50367,2.32112 -19.12867,4.5598 -9.625,2.23869 -18.32528,4.4061 -19.33396,4.81648 -1.52875,0.62198 0.0947,2.53069 9.75487,11.46908 6.37386,5.89761 12.37414,10.71264 13.33396,10.70008 0.95982,-0.0126 10.70713,-2.64653 21.66069,-5.85325 z"
     id="path1995"
     inkscape:export-filename="/home/jofo/pix/mina/inkscape/k-grenade1.jpg"
     inkscape:export-xdpi="44.279861"
     inkscape:export-ydpi="44.279861"
     style="fill:#000000;stroke:none"
     inkscape:connector-curvature="0"
     sodipodi:nodetypes="sssssssscssscsssssssscccsssscssscscssssscssssssscssssscssccssscssssssscsccsscsscsssscsssscssssssssscsscssscsscssssssscsscsssscsscssssscccccsscssscccsscssscccssssssscscsscssscscsscsscssssscsssssssscsscssscsscssssscsssssssssssssssssssscsscsssssssscssssscssssccscssscssssscssssssssssssssssssssssssssssssssscsscssscsscssssccsssssssssssssscsssssscsscsscsssssssscsscssscsssssscssssssscscsssssscsscsssscsssssssscssssssssssssscssssscssssscs" />
  <rect
     height="542.35175"
     id="rect2906"
     style="fill:none;stroke:none"
     width="473.94705"
     x="0"
     y="0" />
</svg>
