<?xml version="1.0" encoding="UTF-8" standalone="no"?>
<!-- Created with Inkscape (http://www.inkscape.org/) -->

<svg
   xmlns:dc="http://purl.org/dc/elements/1.1/"
   xmlns:cc="http://creativecommons.org/ns#"
   xmlns:rdf="http://www.w3.org/1999/02/22-rdf-syntax-ns#"
   xmlns:svg="http://www.w3.org/2000/svg"
   xmlns="http://www.w3.org/2000/svg"
   xmlns:sodipodi="http://sodipodi.sourceforge.net/DTD/sodipodi-0.dtd"
   xmlns:inkscape="http://www.inkscape.org/namespaces/inkscape"
   width="688.75531"
   height="882.15625"
   id="svg4466"
   version="1.1"
   inkscape:version="0.48.2 r9819"
   sodipodi:docname="New document 12">
  <defs
     id="defs4468" />
  <sodipodi:namedview
     id="base"
     pagecolor="#ffffff"
     bordercolor="#666666"
     borderopacity="1.0"
     inkscape:pageopacity="0.0"
     inkscape:pageshadow="2"
     inkscape:zoom="0.35"
     inkscape:cx="282.29302"
     inkscape:cy="538.19221"
     inkscape:document-units="px"
     inkscape:current-layer="layer1"
     showgrid="false"
     fit-margin-top="0"
     fit-margin-left="0"
     fit-margin-right="0"
     fit-margin-bottom="0"
     inkscape:window-width="513"
     inkscape:window-height="406"
     inkscape:window-x="310"
     inkscape:window-y="225"
     inkscape:window-maximized="0" />
  <metadata
     id="metadata4471">
    <rdf:RDF>
      <cc:Work
         rdf:about="">
        <dc:format>image/svg+xml</dc:format>
        <dc:type
           rdf:resource="http://purl.org/dc/dcmitype/StillImage" />
        <dc:title></dc:title>
      </cc:Work>
    </rdf:RDF>
  </metadata>
  <g
     inkscape:label="Layer 1"
     inkscape:groupmode="layer"
     id="layer1"
     transform="translate(-92.70698,-188.39814)">
    <g
       transform="translate(887.14448,-290.25811)"
       id="g4459">
      <path
         sodipodi:nodetypes="ccccccc"
         inkscape:connector-curvature="0"
         d="m -435.92071,485.14372 c -199.67414,392.70422 -344.20983,875.19678 -344.21424,875.21138 m 344.21424,-875.21138 -4.74911,-5.97252 -8.94336,0.83473 c -199.67414,392.7042 -344.21024,875.19737 -344.21424,875.21137 l 13.69247,5.1378"
         style="fill:none;stroke:#000000;stroke-width:1px;stroke-linecap:butt;stroke-linejoin:miter;stroke-opacity:1"
         id="path4418-9" />
      <path
         sodipodi:nodetypes="ccccccccccccccccccc"
         inkscape:connector-curvature="0"
         id="path4439"
         d="m -436.01349,485.16584 c 7.85911,38.34251 25.79756,68.79108 52.88667,96.2096 35.84281,33.13829 49.31805,85.73064 93.43886,110.60013 34.20281,18.89985 40.99716,61.73482 65.38848,89.66081 25.89477,21.54214 37.2491,55.27126 65.68083,73.60223 29.36305,19.20726 35.72142,56.86223 49.36934,86.96968 12.067059,31.47522 -14.99833,56.42225 -19.30721,85.57461 8.87383,36.2861 -43.90057,49.0334 -36.1665,85.3946 -10.27488,21.0866 -30.03685,44.8055 -28.87272,61.0205 -29.31181,2.2311 -31.80912,-32.8632 -53.06994,-48.5198 -27.28484,-36.8491 -66.33532,-73.0009 -115.22401,-72.2859 -40.08071,-3.5146 -75.7872,-24.8369 -116.07948,-26.7891 -41.58543,-0.9631 -62.39899,-40.00766 -96.84808,-56.63582 -19.60917,-13.91251 -38.50586,-31.13106 -64.01367,-25.7556 24.14601,-20.83803 37.2054,-52.5835 59.14799,-76.29782 24.69472,-34.18831 50.92918,-68.531 66.59477,-107.88832 14.75445,-47.61233 29.41428,-95.54906 49.83013,-140.97056 13.012,-31.31197 21.93919,-64.39652 19.7533,-98.54913 0.31655,-13.49987 5.54797,-21.96054 7.49124,-35.34011 z"
         style="opacity:0.30864198;fill:#cc0202;fill-opacity:1;stroke:#000000;stroke-width:1px;stroke-linecap:butt;stroke-linejoin:miter;stroke-opacity:1" />
      <path
         sodipodi:nodetypes="cccccccccccccccccccccccccccc"
         inkscape:connector-curvature="0"
         id="path4444"
         d="m -638.20196,941.23583 c 5.2991,1.03066 10.46541,-3.70777 14.67986,-6.12241 4.43945,-2.21756 2.15944,-10.3673 8.74441,-9.36862 3.86004,-3.63775 9.53245,-0.60681 13.44113,-4.07404 2.05618,-4.6687 -6.00651,-4.07201 -8.78876,-2.68243 -3.23946,1.34557 6.42477,-1.15303 6.28947,-3.90535 1.53181,-5.54925 8.28871,-5.78739 11.19969,-10.3632 1.97395,-0.40595 3.67094,-6.91693 2.96179,-2.69799 0.5935,-3.19752 4.5436,-1.7701 5.69477,-3.53604 5.53978,0.37815 10.17049,-1.68248 14.42158,-4.94804 4.45763,-4.25324 9.51802,-6.37236 13.83388,-10.62615 -1.88547,-1.84314 4.28158,-3.48975 4.96762,-4.74118 3.13508,-3.19113 8.10405,-2.73858 8.33981,-7.34114 4.44091,-3.396 10.43508,-4.17171 14.47748,-8.04631 3.09158,-0.7534 5.64968,-5.36054 6.26149,-4.89659 3.53091,-1.92903 8.76684,-1.7987 6.74091,3.55983 -0.73574,3.24083 -3.907,5.48179 -5.43466,7.71613 -2.99109,-0.9969 -3.35824,3.60747 -5.52458,3.01767 -3.44694,4.4693 -10.62761,5.16472 -12.34072,11.15096 -1.31343,2.61114 -3.90785,0.80021 -3.5461,4.28923 -3.09294,4.42778 -8.70336,6.24798 -12.6645,9.86902 -4.28171,3.95981 -9.75148,5.95194 -13.73503,9.39204 -4.77352,2.84184 -6.07757,9.55983 -11.58354,12.21332 -5.65095,2.19826 -10.36935,6.94555 -16.73487,8.03011 -4.18313,4.12146 -9.21861,5.39848 -14.161,7.86823 -4.69693,1.379 -9.40448,2.27001 -14.04908,3.72811 -2.62779,1.31947 -8.20475,3.49956 -6.00832,1.86475 -2.27366,-0.93116 -5.16667,1.44898 -7.48273,0.65009 z"
         style="opacity:0.06172838;fill:#000202;fill-opacity:1;stroke:none" />
      <path
         sodipodi:nodetypes="ccccccccccccccccccccccccccccccccc"
         inkscape:connector-curvature="0"
         id="path4446"
         d="m -505.64806,1009.6689 c 14.44405,5.7106 31.80644,1.2077 47.36209,2.6728 11.19326,0.077 30.27366,-0.481 34.82684,-10.8374 0.38993,-5.38871 -17.98147,-18.08037 -6.61798,-17.19708 6.41591,2.24292 17.29171,15.16025 18.83736,13.55374 -0.77199,-10.42145 -10.85763,-17.57263 -9.9433,-27.12241 -5.96425,-4.99 4.1462,5.73862 3.04058,1.43309 8.95896,6.85424 21.12943,29.12396 32.46916,13.75916 3.54738,-7.52745 9.99341,-16.09962 17.11689,-5.50777 5.61064,9.5665 25.67603,3.27858 25.41239,9.71026 13.39733,7.42462 26.70705,-6.72427 40.03886,2.63764 11.04643,2.81095 26.42886,7.43857 31.5605,-5.68182 2.64441,-12.58549 21.16226,-0.21082 19.34445,-14.97202 1.85113,-11.86725 -4.55924,-21.64655 -7.22317,-28.32375 6.20547,6.72721 19.98543,4.33403 14.65165,-7.27633 -10.18984,-9.78465 -3.4997,-26.88688 8.99999,-30.45423 9.26169,-8.41572 23.81002,-1.89288 33.70422,-8.48312 6.83451,1.33045 25.0926,-2.68474 24.0557,2.22632 -3.20229,13.28106 -12.25953,19.45737 -23.71721,25.30353 -9.4278,9.05178 9.33785,16.60485 7.42346,27.78211 5.3789,14.92072 -24.08921,3.00744 -14.18491,19.24145 5.5634,8.46483 4.76214,21.46271 12.24801,28.38393 -11.82852,10.7351 -21.92379,-3.49123 -33.66754,-4.99176 -15.7492,-7.36863 7.25017,9.66706 10.08869,14.27476 6.75187,10.7931 5.12043,23.7976 -2.98403,33.223 2.33336,13.0303 -19.05115,0.5886 -16.52334,15.4124 -4.52246,13.2401 -25.45832,14.0506 -31.29728,0.6382 -7.60088,-6.6611 -23.58227,-7.1408 -26.89254,3.9619 -10.26319,-3.9033 -15.31838,2.0743 -14.87555,1.6615 -38.41242,-16.7768 -48.23757,-7.5987 -78.43106,-16.4486 -48.17892,-17.3522 -75.77683,-21.5404 -87.26082,-21.4008 -16.23565,-3.4354 -15.60865,-1.2554 -31.66662,-9.4355 0,0 2.22893,-5.1271 4.10451,-7.7432 z"
         style="opacity:0.05761318;fill:#000202;fill-opacity:1;stroke:none" />
      <path
         inkscape:connector-curvature="0"
         id="path4448"
         d="m -241.48364,861.57676 c -4.68021,0.89754 -8.18497,-5.07704 -9.89884,-8.47076 -2.60303,-4.1883 -7.0857,-7.49618 -6.45245,-13.0232 -0.67167,-5.10504 -4.34261,-9.03799 -5.48507,-14.03057 -1.92752,-3.44267 -3.67707,-6.82357 -4.79871,-10.65909 -1.60016,-4.54856 -4.0675,-8.74352 -5.76652,-13.22517 -0.44926,-5.23425 -2.97428,-9.59447 -4.68826,-14.39143 -2.29322,-4.13001 -5.68445,-7.66419 -6.99493,-12.29806 -3.82166,-8.34727 -12.78977,-13.1776 -15.60415,-22.14275 0.85104,-2.76332 7.78607,-0.5859 10.49786,0.53762 6.40922,1.64717 6.41407,8.9778 8.25695,14.11501 2.92975,4.75008 2.6791,10.92182 5.27829,15.57418 3.43807,3.61058 6.18994,7.84778 10.00952,11.1352 3.77786,4.42258 7.04487,9.12523 9.25829,14.4722 3.53453,4.3405 4.09642,10.13932 7.78134,14.36485 4.62704,5.70897 7.47722,12.65401 8.70536,19.86584 -2.02132,5.19296 3.43091,10.33286 1.01001,15.32602 -0.36742,0.95082 -0.69655,1.91703 -1.10869,2.85011 z"
         style="opacity:0.06995886;fill:#000202;fill-opacity:1;stroke:none" />
    </g>
  </g>
</svg>
