<?xml version="1.0" encoding="UTF-8" standalone="no"?>
<!-- Created with Inkscape (http://www.inkscape.org/) -->

<svg
   xmlns:dc="http://purl.org/dc/elements/1.1/"
   xmlns:cc="http://creativecommons.org/ns#"
   xmlns:rdf="http://www.w3.org/1999/02/22-rdf-syntax-ns#"
   xmlns:svg="http://www.w3.org/2000/svg"
   xmlns="http://www.w3.org/2000/svg"
   xmlns:sodipodi="http://sodipodi.sourceforge.net/DTD/sodipodi-0.dtd"
   xmlns:inkscape="http://www.inkscape.org/namespaces/inkscape"
   width="193.49599"
   height="291.67343"
   id="svg2"
   version="1.1"
   inkscape:version="0.48.2 r9819"
   sodipodi:docname="shoe_sole.svg">
  <defs
     id="defs4" />
  <sodipodi:namedview
     id="base"
     pagecolor="#ffffff"
     bordercolor="#666666"
     borderopacity="1.0"
     inkscape:pageopacity="0.0"
     inkscape:pageshadow="2"
     inkscape:zoom="1.979899"
     inkscape:cx="91.65729"
     inkscape:cy="130.06986"
     inkscape:document-units="px"
     inkscape:current-layer="layer1"
     showgrid="false"
     inkscape:window-width="1920"
     inkscape:window-height="997"
     inkscape:window-x="0"
     inkscape:window-y="30"
     inkscape:window-maximized="1"
     fit-margin-top="0"
     fit-margin-left="0"
     fit-margin-right="0"
     fit-margin-bottom="0" />
  <metadata
     id="metadata7">
    <rdf:RDF>
      <cc:Work
         rdf:about="">
        <dc:format>image/svg+xml</dc:format>
        <dc:type
           rdf:resource="http://purl.org/dc/dcmitype/StillImage" />
        <dc:title></dc:title>
      </cc:Work>
    </rdf:RDF>
  </metadata>
  <g
     inkscape:label="Layer 1"
     inkscape:groupmode="layer"
     id="layer1"
     transform="translate(-165.28355,-353.67198)">
    <path
       style="fill:#000000"
       d="m 198.06607,644.0803 c -10.06965,-3.86443 -20.95907,-10.00689 -24.30397,-13.70929 -4.72799,-6.39204 -3.46954,-7.72581 -3.70803,-10.05261 -3.17113,-9.57618 -3.10962,-7.28292 -1.32692,-12.70072 0.28319,-0.4582 -0.37577,-1.86004 -1.46436,-3.11518 -1.08858,-1.25515 -1.97924,-2.63109 -1.97924,-3.05765 0,-1.60062 3.27296,-3.96838 4.85537,-3.51253 0.90455,0.26057 7.38213,1.69337 14.39463,3.18399 11.53935,2.45288 12.75,2.91437 12.75,4.86017 0,2.58929 -1.77374,4.54995 -4.11618,4.54995 -0.9439,0 -2.30802,1.33706 -3.03138,2.97124 -0.72336,1.63417 -1.99858,3.11506 -2.83382,3.29085 -0.83524,0.17578 0.7816,0.78666 3.59298,1.35751 4.72719,0.95984 5.07563,0.90037 4.63337,-0.79085 -0.31766,-1.21474 0.0646,-1.82875 1.1384,-1.82875 0.88915,0 1.61663,-0.675 1.61663,-1.5 0,-0.825 0.66088,-1.5 1.46862,-1.5 0.80773,0 1.26246,-0.5625 1.0105,-1.25 -1.02663,-2.80125 1.38435,-4.25 7.07276,-4.25 7.15779,0 9.46931,2.30352 9.07242,9.04099 -0.14447,2.45246 0.10596,4.45901 0.55651,4.45901 1.30604,0 0.94699,2.78177 -0.43081,3.33772 -0.70533,0.28461 -0.43664,0.53879 0.61663,0.58333 1.36047,0.0575 1.72481,0.62128 1.34362,2.07895 -0.28765,1.1 -0.11514,2 0.38337,2 0.49851,0 0.90638,-0.675 0.90638,-1.5 0,-0.93333 0.94444,-1.5 2.5,-1.5 1.55556,0 2.5,-0.56667 2.5,-1.5 0,-0.825 0.7875,-1.5522 1.75,-1.616 1.66667,-0.11048 1.66667,-0.13778 0,-0.57333 -0.9625,-0.25152 -1.75,-1.07887 -1.75,-1.83854 0,-0.75967 -1.125,-2.50622 -2.5,-3.88122 -2.8049,-2.8049 -3.23238,-5.37264 -1.03483,-6.21592 1.96619,-0.75449 27.58824,4.26982 28.95557,5.678 0.77945,0.80273 0.17643,1.87282 -2.17074,3.85208 -1.7875,1.50732 -3.25,3.27031 -3.25,3.91776 0,0.64744 -1.125,1.17717 -2.5,1.17717 -1.64421,0 -2.5,0.558 -2.5,1.63005 0,1.34828 -0.82109,1.54344 -4.75,1.129 -2.6125,-0.27559 -4.1875,-0.29661 -3.5,-0.0467 2.08016,0.75608 1.40162,3.12543 -1,3.49186 -1.2375,0.18881 -2.1375,0.89511 -2,1.56955 0.1375,0.67444 -0.7625,1.25478 -2,1.28965 l -2.25,0.0634 2.25,0.90439 c 4.00491,1.60978 2.59858,3.9108 -4.38852,7.18046 -7.87538,3.68533 -18.45274,4.6933 -24.57896,2.34225 z m 21.62202,-4.37538 c 2.69749,-1.21151 4.68538,-2.42191 4.41752,-2.68977 -0.26786,-0.26786 -10.57491,-2.73156 -22.90454,-5.4749 -12.32964,-2.74333 -23.54252,-5.25307 -24.91752,-5.57721 l -2.5,-0.58932 3,3.18586 c 2.39007,2.53814 15.70437,9.77175 24.5,13.31075 3.06828,1.23455 13.59093,-0.004 18.40454,-2.16541 z m 25.98778,-22.00426 c 0.2807,-0.45418 -3.85525,-1.64254 -9.19098,-2.64081 -5.33574,-0.99827 -10.37634,-2.0429 -11.20134,-2.3214 -1.19234,-0.40252 -1.2513,-0.23774 -0.28747,0.80333 0.66689,0.72034 4.71689,2.09743 9,3.06021 9.09093,2.04349 10.9857,2.22173 11.67979,1.09867 z m -33.83345,-6.70603 c -1.84417,-1.39486 -6.55887,-2.06767 -6.55887,-0.93598 0,0.79695 4.21795,2.33655 6.5,2.37259 1.97313,0.0312 1.97392,0.0119 0.0589,-1.43661 z m -30.55887,-1.4682 c 0,-1.1 -0.45,-2 -1,-2 -0.55,0 -1,0.6375 -1,1.41667 0,0.77916 -0.5625,1.64364 -1.25,1.92105 -0.6875,0.27741 -0.2375,0.53991 1,0.58333 1.60965,0.0565 2.25,-0.49025 2.25,-1.92105 z m 11.45,-2.87636 c -1.33639,-1.23278 -23.45,-5.98217 -23.45,-5.0364 0,0.42698 3.4875,1.51813 7.75,2.42477 4.2625,0.90664 8.875,2.02681 10.25,2.48927 3.41139,1.14735 6.6397,1.21984 5.45,0.12236 z m 52.05,2.79814 c -12.62849,-2.76981 -13.51613,-3.73036 -8.75,-9.46872 1.5125,-1.82103 3.481,-4.34971 4.37444,-5.61929 l 1.62444,-2.30832 7.87556,2.30366 c 13.54656,3.96247 14.88408,5.89767 8.49321,12.28854 -4.13476,4.13475 -5.89669,4.49757 -13.61765,2.80413 z m 11.00632,-4.92837 c 3.38405,-3.53219 2.98676,-4.10667 -4.50632,-6.51615 -3.025,-0.97271 -6.01137,-1.95655 -6.63637,-2.1863 -0.62501,-0.22975 -2.51472,1.62458 -4.19936,4.12075 l -3.06298,4.53848 3.69935,0.949 c 10.39814,2.66747 11.33773,2.6096 14.70568,-0.90578 z m -42.0389,-4.99113 c -5.32781,-2.63729 -7.88625,-7.08743 -7.8917,-13.72678 -0.0133,-16.14138 21.95497,-19.63335 28.62687,-4.55041 5.88645,13.3073 -7.29785,24.92872 -20.73517,18.27719 z m 12.86351,-2.25228 c 1.43314,-1.04566 0.82952,-1.19511 -3.69259,-0.91419 -3.58912,0.22296 -6.45304,-0.20575 -8.52207,-1.27568 -4.10671,-2.12367 -4.01012,-1.07572 0.13373,1.45083 3.68102,2.24436 9.52762,2.60202 12.08093,0.73904 z m 0.61907,-5.30152 c 1.79315,-1.75593 1.89663,-7.72343 0.17001,-9.80388 -3.71882,-4.4809 -12.10435,-3.96785 -14.31117,0.87561 -3.39109,7.44263 8.19086,14.75509 14.14116,8.92827 z m -9.93262,-2.92754 c -1.01051,-1.21759 -1.05315,-2.14701 -0.18584,-4.05055 2.03066,-4.45683 7.70022,-2.24859 6.99522,2.72457 -0.40199,2.83575 -4.83927,3.69982 -6.80938,1.32598 z m -6.6723,1.93593 c -0.32569,-0.84872 -0.80663,-1.32866 -1.06875,-1.06653 -0.26213,0.26213 -0.17998,0.95654 0.18255,1.54313 0.98605,1.59546 1.56238,1.28551 0.8862,-0.4766 z m 21.74687,-6.54255 c -0.81183,-2.03073 -0.96271,-1.61992 -0.94962,2.58568 0.0134,4.31406 0.14584,4.64528 0.96518,2.41432 0.60303,-1.64198 0.59735,-3.46685 -0.0156,-5 z m -23.43601,-0.18335 c -0.27393,-0.67703 -0.48137,0.11903 -0.46099,1.76903 0.0204,1.65 0.2445,2.20394 0.49804,1.23097 0.25354,-0.97297 0.23687,-2.32297 -0.037,-3 z m 14.65957,-8.97757 c -1.20146,-0.55031 -3.77318,-0.70252 -5.71492,-0.33825 -5.85362,1.09815 -4.82429,2.10963 1.74205,1.71184 5.06365,-0.30676 5.76934,-0.55075 3.97287,-1.37359 z m -25.20634,21.9966 c -1.347,-3.60237 -2.2768,-13.23392 -1.55513,-16.10927 1.21279,-4.83216 3.44157,-3.16576 3.48985,2.60927 0.0241,2.8875 0.69237,7.05 1.48495,9.25 1.93444,5.36953 1.83816,6.5 -0.55359,6.5 -1.18379,0 -2.37419,-0.93451 -2.86608,-2.25 z m 0.495,-9.47917 c -0.3323,-0.33229 -0.56864,0.25834 -0.52522,1.3125 0.048,1.16495 0.28494,1.4019 0.60416,0.60417 0.28887,-0.72188 0.25335,-1.58438 -0.0789,-1.91667 z m -16.60417,8.13788 c -3.575,-0.78786 -8.68346,-2.15356 -11.35214,-3.03488 -4.63311,-1.53008 -4.82487,-1.73879 -4.24794,-4.62342 0.77893,-3.89466 4.39738,-9.75041 6.02509,-9.75041 0.69404,0 3.76246,0.86032 6.81872,1.91183 l 5.55683,1.91183 0.44049,-2.3043 c 0.4061,-2.12435 0.22515,-2.22924 -2.31694,-1.34306 -2.05969,0.71801 -3.53765,0.55779 -5.84077,-0.63321 -3.88204,-2.00747 -4.05087,-5.2398 -0.49445,-9.46636 3.34014,-3.96953 6.60609,-3.97312 12.84877,-0.0141 l 4.82922,3.0626 -0.77503,5.6874 c -0.42626,3.12807 -0.67292,7.4874 -0.54813,9.6874 0.1248,2.2 0.30102,5.35 0.39159,7 0.20254,3.68951 -1.75728,4.01952 -11.33531,1.90871 z m 8.60699,-2.9905 c -0.33384,-0.86998 -0.60699,-2.24037 -0.60699,-3.04531 0,-1.131 -0.79523,-1.31434 -3.5,-0.80692 -3.21683,0.60348 -3.5,0.46078 -3.5,-1.76382 0,-2.02611 -0.81827,-2.68208 -5.02285,-4.02666 l -5.02285,-1.60624 -1.94523,3.81296 -1.94523,3.81297 6.21808,1.62379 c 6.17339,1.61212 13.43176,3.28795 15.07507,3.48057 0.47134,0.0553 0.58384,-0.61135 0.25,-1.48134 z m -8.67728,-20.28479 c -0.0387,-0.34838 -0.38561,-1.4311 -0.77102,-2.40605 -0.60869,-1.53977 -0.9241,-1.3945 -2.4011,1.10586 -1.69645,2.87186 -1.69468,2.8774 0.77102,2.40605 1.35927,-0.25984 2.43976,-0.75747 2.4011,-1.10586 z m 77.49173,20.44921 c -1.11297,-0.77955 -3.72402,-1.73637 -5.80235,-2.12627 -2.07832,-0.38989 -4.02883,-1.36055 -4.33446,-2.15702 -0.36215,-0.94374 -1.35405,-1.24775 -2.84784,-0.87283 -3.07547,0.77189 -5.43679,-1.74811 -5.43679,-5.80216 0,-3.59082 5.18343,-12.62435 7.24385,-12.62435 0.70834,0 4.20873,1.70684 7.77864,3.79297 3.56991,2.08614 8.58505,4.80682 11.14477,6.04595 2.55971,1.23914 4.927,2.96434 5.26064,3.83378 0.74165,1.93273 -1.08786,4.32896 -3.30034,4.32267 -2.11938,-0.006 -12.9577,-4.42551 -14.40674,-5.87455 -0.61645,-0.61645 -2.26832,-1.0813 -3.67082,-1.033 -1.84583,0.0636 -0.14709,1.23717 6.15169,4.25 10.41977,4.98397 11.61613,5.97184 9.83348,8.1198 -1.59959,1.92739 -4.96166,1.9826 -7.61373,0.12501 z m -12.50921,-9.86443 c -0.87327,-0.67001 -1.85025,-1.8932 -2.17105,-2.7182 -0.34601,-0.88982 -0.6154,-0.38133 -0.66223,1.25 -0.0637,2.21741 0.3568,2.74384 2.17105,2.7182 1.97245,-0.0279 2.05414,-0.18208 0.66223,-1.25 z m 12.94453,-3.82789 c -2.15703,-1.36676 -3.21528,-1.02722 -1.8659,0.59868 0.67967,0.81894 1.68281,1.21269 2.22921,0.875 0.60346,-0.37296 0.46084,-0.95147 -0.36331,-1.47368 z m -5.96932,-1.7585 c 2.30674,-0.64623 2.2621,-0.73582 -1.3207,-2.65032 -3.66802,-1.96006 -3.72359,-1.96049 -5.13744,-0.0404 -0.78611,1.06766 -1.4293,2.30516 -1.4293,2.75004 0,0.94134 4.43457,0.90799 7.88744,-0.0593 z m -51.70248,-6.85369 c 0.93821,-4.87176 22.84148,-10.97875 24.43958,-6.81416 0.9683,2.52334 -1.26275,3.49873 -8.12454,3.55194 -4.57159,0.0354 -6.95227,0.63304 -10,2.51019 -4.70083,2.89532 -6.77538,3.14237 -6.31504,0.75203 z m 31.26001,-3.80663 c -2.68859,-6.07938 -3.11937,-9.48487 -1.19497,-9.4467 2.26772,0.045 10.75,6.95896 10.75,8.76242 0,2.71207 -2.88031,6.21279 -5.11173,6.21279 -1.46197,0 -2.65457,-1.48388 -4.4433,-5.52851 z m 4.95964,-1.5769 c -2.14215,-2.36705 -2.94815,-1.77873 -1.43546,1.04777 0.62216,1.16251 1.58793,1.83138 2.14617,1.48637 0.62576,-0.38674 0.35322,-1.3585 -0.71071,-2.53414 z m -47.74182,-0.94963 c -3.17737,-2.27526 -5.66279,-4.82222 -5.66279,-5.80299 0,-3.13377 5.93336,-10.14197 8.58651,-10.14197 1.75925,0 2.41349,0.55066 2.41349,2.03138 0,2.14617 0.53113,2.4546 5.79736,3.36656 l 3.29737,0.57101 -1.79737,-3.08911 c -0.98855,-1.69901 -2.80986,-3.89429 -4.04736,-4.8784 -2.90666,-2.31148 -2.84928,-2.81872 0.8228,-7.2736 4.37291,-5.30509 6.498,-4.92743 14.19252,2.52216 6.62275,6.41193 11.13751,13.53667 10.17208,16.05254 -0.35468,0.92429 -2.7875,1.62771 -6.98529,2.0197 -3.54258,0.33081 -7.31396,1.06864 -8.38084,1.63962 -3.33928,1.78712 -7.85978,1.27984 -8.57127,-0.96186 -0.71155,-2.2419 -2.12086,-2.63743 -2.74335,-0.76995 -0.22551,0.67653 0.46916,1.94196 1.5437,2.81207 1.38585,1.1222 1.75187,2.21797 1.2593,3.76995 -1.00923,3.17979 -3.507,2.70857 -9.89686,-1.86711 z m 15.83721,-5.94496 c 0.33992,-0.55 -0.0835,-1 -0.94098,-1 -0.85746,0 -1.55902,0.45 -1.55902,1 0,0.55 0.42344,1 0.94098,1 0.51754,0 1.2191,-0.45 1.55902,-1 z m 13.43788,-1.94045 c 1.19522,-0.75627 0.98108,-1.56899 -1.26888,-4.81569 -1.48872,-2.14822 -4.09841,-5.21941 -5.7993,-6.82486 l -3.09252,-2.919 0.67185,3.16343 c 0.56066,2.63986 0.33083,3.27166 -1.38859,3.81739 -3.11523,0.98873 -2.4685,2.51918 1.06456,2.51918 2.93889,0 3.08927,0.17867 2.525,3 -0.56785,2.83927 -0.42722,2.99918 2.625,2.98469 1.77375,-0.008 3.87205,-0.42474 4.66288,-0.92514 z m -13.474,-13.42608 c 2.18131,-2.35367 2.18233,-2.37332 0.18809,-3.61875 -1.6908,-1.05592 -2.2126,-0.96849 -3.32855,0.55766 -1.44981,1.98273 -1.69046,3.72725 -0.65675,4.76095 1.02819,1.0282 1.43963,0.84402 3.79721,-1.69986 z m 98.49854,-13.89094 c -2.49567,-2.33339 -6.43317,-5.8971 -8.75,-7.91936 -4.14836,-3.62092 -5.49637,-6.82317 -2.87225,-6.82317 1.66367,0 19.15983,15.86627 19.15983,17.37495 0,2.4944 -3.27901,1.34924 -7.53758,-2.63242 z m 0.53758,-2.74253 c -1.5808,-1.65 -3.09918,-3 -3.37418,-3 -0.275,0 0.79338,1.35 2.37418,3 1.5808,1.65 3.09918,3 3.37418,3 0.275,0 -0.79338,-1.35 -2.37418,-3 z m 7.25,-3.89552 c -1.5125,-1.47389 -2.75,-3.22534 -2.75,-3.89213 0,-0.66679 -0.71075,-1.21235 -1.57946,-1.21235 -1.15927,0 -1.46653,-0.73157 -1.15498,-2.75 0.23347,-1.5125 0.23623,-2.1875 0.006,-1.5 -0.62504,1.86759 -2.9934,1.51563 -6.31219,-0.93806 -2.99873,-2.21705 -3.97163,-6.06838 -1.86229,-7.37202 0.60347,-0.37297 3.10027,-3.77453 5.54845,-7.55902 2.70711,-4.18478 5.13596,-6.8809 6.19876,-6.8809 1.7561,0 15.13707,7.80816 18.40557,10.74015 2.43766,2.18669 2.18485,5.00095 -0.80089,8.91546 -3.14536,4.12377 -5.10789,4.19171 -9.94911,0.34439 -5.3377,-4.24187 -5.6241,-3.72108 -0.70821,1.28785 2.31452,2.35832 4.20821,4.68211 4.20821,5.16398 0,0.48187 -0.7616,2.60234 -1.69245,4.71215 -1.9753,4.47711 -3.70711,4.69263 -7.55755,0.9405 z m 14.33868,-16.27018 c 0.83982,-1.56922 -0.12128,-2.54877 -6.74041,-6.86978 -4.24594,-2.77178 -8.26598,-4.91021 -8.93341,-4.75206 -1.76667,0.41861 -10.39806,13.67989 -9.33248,14.33845 1.02624,0.63425 5.91762,-3.91644 5.91762,-5.50546 0,-0.575 0.68996,-1.04545 1.53324,-1.04545 2.12537,0 10.80745,4.50066 12.41225,6.43432 1.46027,1.75952 3.31065,0.8241 5.14319,-2.60002 z m -42.75681,6.58816 c -0.80243,-2.0911 1.86636,-4.66736 3.99059,-3.85222 1.96757,0.75503 2.16891,2.53839 0.47754,4.22976 -1.67222,1.67222 -3.7489,1.49674 -4.46813,-0.37754 z m 7.66813,-8.67663 c 0,-2.01787 9.90685,-17.49611 11.61888,-18.15308 4.3792,-1.68045 4.49206,3.45638 0.20785,9.46025 -1.7453,2.44585 -4.30449,5.6845 -5.68709,7.197 -2.59601,2.83991 -6.13964,3.70326 -6.13964,1.49583 z m -9.13839,-3.76347 c -0.90111,-0.52625 -1.90152,-2.00525 -2.22314,-3.28666 -0.41947,-1.67131 -1.65229,-2.59393 -4.36161,-3.26415 -3.5358,-0.87466 -3.76301,-1.1576 -3.55985,-4.43292 0.67237,-10.83977 0.80544,-11.47622 2.4663,-11.79575 2.09195,-0.40246 16.81669,13.3691 16.81669,15.72808 0,1.46563 -5.83418,8.1202 -7.04761,8.03863 -0.24881,-0.0167 -1.18966,-0.46098 -2.09078,-0.98723 z m -0.53065,-13.1314 -6.10905,-6.10905 -0.37068,4.66069 c -0.28822,3.6239 -0.12153,4.31997 0.74929,3.12904 1.78158,-2.43646 5.39659,-1.95687 5.41479,0.71836 0.026,3.81692 3.30688,6.58674 5.45469,4.605 0.60411,-0.5574 -1.33434,-3.19934 -5.13904,-7.00404 z m 40.84467,5.10421 c -5.98227,-3.94106 -9.17563,-6.6771 -9.17563,-7.86157 0,-0.99921 1.80351,-5.66534 4.0078,-10.36917 2.20429,-4.70383 4.29327,-9.9798 4.64219,-11.72437 0.34891,-1.74458 1.26164,-3.41266 2.02828,-3.70684 1.57784,-0.60548 11.45208,2.77171 18.57173,6.35189 5.40833,2.71963 5.74216,3.99486 3.1222,11.92675 -2.22052,6.72261 -3.4808,7.9629 -6.50554,6.40235 l -2.36666,-1.22103 2.25,2.16237 c 1.2375,1.1893 2.24578,2.48233 2.24062,2.87341 -0.005,0.39107 -1.36427,3.07354 -3.02023,5.96104 -1.88152,3.28079 -3.68756,5.25 -4.81499,5.25 -0.99228,0 -5.93318,-2.72017 -10.97977,-6.04483 z m 13.28238,-1.46621 c 1.80311,-3.38578 1.82662,-3.75017 0.29728,-4.60603 -4.16259,-2.3295 -10.27703,-7.63802 -10.57405,-9.18032 -0.50433,-2.61881 5.46618,-2.16592 10.67083,0.80944 2.39364,1.36837 4.49498,2.48795 4.66964,2.48795 0.9722,0 3.56972,-10.30857 2.79319,-11.0851 -0.49802,-0.49802 -4.68817,-2.43147 -9.31145,-4.29656 l -8.40595,-3.39106 -3.70606,9.42222 c -2.03834,5.18222 -4.2619,10.09195 -4.94126,10.91052 -0.67935,0.81857 -0.95493,1.76857 -0.6124,2.1111 1.56523,1.56523 16.21759,11.0545 16.66222,10.7909 0.275,-0.16303 1.3811,-1.95091 2.45801,-3.97306 z m -75.06447,2.0942 c -0.82768,-2.1569 0.32393,-4.844 1.85699,-4.33298 0.68721,0.22907 1.24947,1.46649 1.24947,2.74982 0,2.74083 -2.22675,3.87566 -3.10646,1.58316 z m 25.69706,-11.5741 c -5.20212,-4.47732 -7.0906,-6.75606 -7.0906,-8.55587 0,-1.76682 0.54641,-2.45319 1.95295,-2.45319 3.04368,0 7.28607,-2.19529 10.27666,-5.31783 2.32111,-2.42351 3.21905,-2.74462 6,-2.14566 5.00837,1.07869 8.77097,3.32772 8.76507,5.23917 -0.009,2.76845 -9.33333,18.66644 -11.15408,19.01678 -0.91498,0.17605 -4.84033,-2.41845 -8.75,-5.7834 z m 12.28553,-4.90529 c 1.99313,-3.79293 3.62387,-7.31743 3.62387,-7.83222 0,-0.51479 -1.58934,-1.42377 -3.53187,-2.01995 -3.21608,-0.98704 -3.67046,-0.87244 -5.08191,1.2817 -0.85252,1.30111 -3.20068,2.89749 -5.21813,3.54749 -2.01745,0.65001 -4.0901,1.42653 -4.60589,1.72561 -0.86511,0.50162 9.15261,10.1577 10.56393,10.18257 0.34437,0.006 2.25687,-3.09228 4.25,-6.8852 z m -34.30005,4.14623 c 0.12176,-4.40118 2.4455,-9.71977 4.41388,-10.10249 1.6243,-0.31581 1.74873,0.18935 1.19604,4.85588 -0.64805,5.47179 -2.00838,7.99661 -4.30844,7.99661 -0.85457,0 -1.34868,-1.04404 -1.30148,-2.75 z m 42.25732,1.17644 c -0.6907,-1.79994 -0.53357,-2.28597 4.66411,-14.42644 4.94272,-11.54495 5.45715,-12.46388 7.16104,-12.79202 4.19911,-0.80867 2.65197,7.23455 -3.99704,20.77967 -3.67856,7.49383 -6.52487,9.83499 -7.82811,6.43879 z m -70.66673,-0.0931 c -1.17814,-1.17814 -0.71054,-4.33334 0.6422,-4.33334 2.14679,0 5.05116,2.60844 4.28489,3.8483 -0.7743,1.25283 -3.85593,1.55619 -4.92709,0.48504 z m 20.08333,-2.41344 c -2.37716,-1.38457 -2.21547,-3.9199 0.25,-3.9199 2.40535,0 2.72102,-3.15671 0.5,-5 -1.75451,-1.45611 -1.95543,-4.14457 -0.42418,-5.67582 0.76777,-0.76777 0.33824,-0.93483 -1.5,-0.58343 -2.14581,0.4102 -2.57582,0.11959 -2.57582,-1.7408 0,-1.73097 0.44388,-2.11713 1.97371,-1.71708 1.88048,0.49176 1.90127,0.37605 0.44004,-2.44965 -1.31366,-2.54034 -1.94177,-2.87616 -4.37851,-2.34096 -1.67683,0.36829 -3.1283,0.16619 -3.53524,-0.49226 -0.41176,-0.66625 -1.86308,-0.85953 -3.59603,-0.47891 -3.77438,0.82899 -4.33612,-0.66136 -3.43188,-9.10504 0.49157,-4.5902 1.17491,-6.7271 2.28777,-7.15414 1.51214,-0.58026 16.12195,6.20052 16.34514,7.58619 0.0577,0.35854 0.18829,3.41203 0.29009,6.78552 0.14471,4.79535 0.77636,7.02707 2.895,10.22856 3.04638,4.60339 3.27563,6.52423 1.20991,10.13782 -0.78602,1.375 -1.44508,3.5125 -1.46456,4.75 -0.0385,2.44686 -2.2519,2.93678 -5.28544,1.1699 z m -0.25,-29.3301 c 0,-1.31068 -1.96155,-2.98657 -6.25,-5.3398 l -6.25,-3.4296 0,2.65554 c 0,1.46055 -0.46583,3.52596 -1.03518,4.5898 -0.95273,1.78018 -0.67393,1.93426 3.5,1.93426 2.5451,0 4.53518,0.46796 4.53518,1.06642 0,0.58653 1.2375,0.92403 2.75,0.75 1.92981,-0.22205 2.75,-0.88614 2.75,-2.22662 z m -17.5,20.4102 c -2.52088,-2.52088 -2.5779,-5 -0.11501,-5 1.81957,0 5.11501,3.84294 5.11501,5.96482 0,1.71884 -2.87018,1.165 -5,-0.96482 z m 32.31632,-4.94338 c -5.13715,-2.33234 -7.31632,-6.21834 -7.31632,-13.0468 0,-6.40149 2.9553,-12.41822 7.17015,-14.59781 5.05061,-2.61177 14.02935,-1.55312 17.84682,2.10425 7.64398,7.32339 5.73376,21.00554 -3.56085,25.50498 -5.0892,2.46364 -8.77109,2.47286 -14.1398,0.0354 z m 14.01675,-3.5392 c 6.47661,-4.24363 7.03986,-13.34449 1.18806,-19.19629 -2.81469,-2.81469 -4.03431,-3.32113 -7.99805,-3.32113 -3.80546,0 -5.20648,0.52955 -7.51891,2.84198 -1.56309,1.56309 -3.35293,4.73949 -3.97741,7.05865 -0.96369,3.57887 -0.86252,4.77501 0.6689,7.90802 3.25765,6.66457 11.3537,8.82602 17.63741,4.70877 z m -15.26049,-3.15228 c -2.45333,-3.1189 -2.68741,-8.27551 -0.56223,-12.38516 1.92649,-3.72541 4.31996,-4.97998 9.50083,-4.97998 3.28405,0 4.77435,0.63168 7.19041,3.04775 2.74992,2.74991 2.99632,3.50403 2.52146,7.717 -0.73818,6.54911 -3.9976,9.23525 -11.20623,9.23525 -4.61202,0 -5.66476,-0.37261 -7.44424,-2.63486 z m 10.94744,-0.87549 c 5.23932,-2.70936 6.40332,-7.34567 2.80567,-11.1752 -3.07378,-3.27188 -8.0439,-3.12379 -10.75311,0.32041 -2.74937,3.49526 -2.61773,6.9109 0.38197,9.91059 2.86942,2.86943 3.65329,2.96726 7.56547,0.9442 z m -5.82002,-2.68965 c -0.66,-0.66 -1.2,-2.37 -1.2,-3.8 0,-5.27211 5.69067,-6.92792 8.59196,-2.5 1.51741,2.31587 1.51741,2.68413 0,5 -1.75527,2.67888 -5.37626,3.3157 -7.39196,1.3 z m 4.11287,-4.88713 c -1.32782,-1.32782 -2.79931,0.49104 -1.75902,2.17426 0.48382,0.78285 0.97617,0.78285 1.75902,0 0.78284,-0.78284 0.78284,-1.39142 0,-2.17426 z m -41.31287,10.43786 c 0,-3.14761 2.38208,-3.98563 5.50772,-1.93763 3.86391,2.53174 3.20025,4.47131 -1.50772,4.40634 -3.54652,-0.049 -4,-0.32882 -4,-2.46871 z m 103.5,-0.90391 c -3.3,-1.88263 -6.94679,-3.42834 -8.10398,-3.4349 -1.15718,-0.007 -3.33864,-1.15617 -4.84767,-2.55469 -2.21074,-2.04885 -2.60727,-3.06864 -2.04139,-5.25 0.38627,-1.48898 1.28378,-5.99828 1.99445,-10.02067 0.71068,-4.02239 1.49068,-7.51199 1.73334,-7.75465 0.51024,-0.51024 20.14965,3.38354 23.51017,4.66121 1.87308,0.71214 2.25508,1.60999 2.25508,5.30034 0,6.06955 -0.76746,7.60654 -3.79812,7.60654 -2.4124,0 -2.46164,0.0896 -0.74087,1.34783 1.51097,1.10485 1.71996,2.11895 1.15929,5.62525 -0.82035,5.13013 -2.25281,8.05038 -3.90548,7.96182 -0.66815,-0.0358 -3.91482,-1.60544 -7.21482,-3.48808 z m 7.8875,-3.63432 c 0.77095,-3.85477 0.55416,-4.06735 -6.3875,-6.26329 -3.025,-0.95693 -6.0625,-2.20208 -6.75,-2.76699 -1.74144,-1.43092 -1.56624,-4.78222 0.25,-4.78222 0.83333,0 1.5,-0.88889 1.5,-2 0,-2.33565 2.787,-2.71866 3.63837,-0.5 0.31659,0.825 1.20246,1.5 1.96862,1.5 0.76615,0 1.39301,0.40598 1.39301,0.90218 0,0.81028 5.19542,3.09782 7.03572,3.09782 0.40551,0 0.93894,-1.37399 1.18541,-3.05332 0.5404,-3.68197 -0.16504,-4.13196 -9.91854,-6.32694 -9.81495,-2.20881 -11.29992,-2.12609 -11.31446,0.63026 -0.007,1.2375 -0.68051,4.725 -1.49773,7.75 -1.43186,5.30008 -1.40922,5.56361 0.62265,7.25 1.15968,0.9625 2.84617,1.77619 3.74773,1.8082 0.90157,0.032 4.11422,1.32081 7.13922,2.86399 7.05072,3.59687 6.64498,3.60289 7.3875,-0.10969 z m -5.3875,-10.15948 c -1.375,-0.72462 -2.71197,-1.14352 -2.97104,-0.93089 -0.70327,0.57722 2.24689,2.24716 3.97104,2.24782 0.82676,3.1e-4 0.37794,-0.59076 -1,-1.31693 z m -42.26787,13.81093 c -2.99436,-2.03472 -3.73685,-3.17139 -3.75599,-5.75 -0.0131,-1.76767 -0.50016,-5.01395 -1.08231,-7.21395 -0.58215,-2.2 -1.30773,-5.30731 -1.61241,-6.90514 l -0.55396,-2.90514 8.26594,0.68935 c 4.54626,0.37915 9.10759,1.13979 10.13627,1.69033 2.5613,1.37076 2.38866,5.18655 -0.67318,14.87898 -2.91672,9.23305 -4.24685,9.91715 -10.72436,5.51557 z m 8.22769,-8.06929 c 2.21979,-7.18684 2.45554,-9.01992 1.25542,-9.76164 -0.43162,-0.26675 -3.63159,-0.80708 -7.11104,-1.20074 -5.99465,-0.67822 -6.2746,-0.61657 -5.34058,1.17599 0.54212,1.04045 1.29908,4.47612 1.68212,7.63482 0.51392,4.23795 1.26029,6.13802 2.84786,7.25 3.58695,2.5124 4.5408,1.78287 6.66622,-5.09843 z m 9.61364,-1.2758 c -0.33716,-0.54553 0.13069,-5.76692 1.03966,-11.6031 1.35709,-8.7134 1.94189,-10.55623 3.26978,-10.30377 3.5666,0.67809 1.63248,21.87249 -2.06092,22.58378 -0.89953,0.17323 -1.91136,-0.13138 -2.24852,-0.67691 z M 252.48065,435.5624 c -6.51098,-3.14863 -8.1971,-4.40852 -8.1971,-6.12495 0,-2.08743 4.55517,-13.48896 6.1124,-15.29926 0.42024,-0.48852 3.15436,0.68493 6.07583,2.60767 2.92148,1.92275 6.43677,4.08363 7.81177,4.80196 5.60075,2.92594 -0.33886,-2.11301 -6.6527,-5.64391 -4.01131,-2.24325 -6.3473,-4.19114 -6.3473,-5.29275 0,-2.44673 7.21122,-12.50173 9.24716,-12.89381 2.69744,-0.51948 24.75284,13.17578 24.75284,15.37023 0,1.58403 -8.19103,16.33032 -10.14797,18.26938 -3.24674,3.21706 -11.02358,8.12923 -12.90493,8.15127 -0.85409,0.01 -5.24159,-1.76561 -9.75,-3.94583 z m 14.85194,-2.47613 c 5.25944,-3.46375 9.25852,-8.48028 12.51212,-15.69546 1.70401,-3.77883 1.69909,-3.95592 -0.14955,-5.37581 -3.29524,-2.53098 -17.03779,-10.48857 -18.1135,-10.48857 -1.14359,0 -6.29811,7.04212 -6.29811,8.60449 0,0.54834 1.97503,1.95652 4.38896,3.1293 5.74149,2.78943 11.61104,7.99745 11.61104,10.30242 0,3.60048 -3.74701,3.28341 -11.50312,-0.97339 l -7.45002,-4.08881 -2.52343,4.97975 c -1.38789,2.73887 -2.52343,5.23729 -2.52343,5.55205 0,0.44107 13.77318,7.49419 14.6345,7.49419 0.10501,0 2.54156,-1.54807 5.41454,-3.44016 z m 34.50983,1.90836 c -1.06762,-0.80751 -3.39332,-1.4682 -5.16821,-1.4682 -1.7749,0 -3.93889,-0.27314 -4.80887,-0.60699 -2.29122,-0.87922 -1.94453,-5.23124 0.74398,-9.33926 1.27917,-1.95456 3.98377,-6.14125 6.01021,-9.30375 2.93798,-4.58505 4.21211,-5.75 6.28891,-5.75 3.53392,0 12.18865,4.83715 12.9507,7.23818 0.99916,3.14805 -0.63075,17.56271 -2.1262,18.80382 -0.74214,0.61592 -2.92271,0.9843 -4.84573,0.81862 -1.92301,-0.16567 -3.82052,0.0229 -4.21669,0.41908 -1.08593,1.08593 -2.67191,0.81936 -4.8281,-0.8115 z m 11.94016,-3.46664 c 0.33939,-0.54914 0.87521,-4.07754 1.19072,-7.84089 l 0.57365,-6.84246 -4.75765,-2.65911 c -2.61671,-1.4625 -5.15657,-2.6591 -5.64412,-2.6591 -0.48756,0 -2.50008,2.5875 -4.47227,5.75 -1.97219,3.1625 -4.4416,6.96928 -5.48758,8.45951 -1.04598,1.49023 -1.90178,3.10489 -1.90178,3.58814 0,1.95838 19.3641,4.04028 20.49903,2.20391 z m -34.49903,-1.52652 c 0,-3.38221 6.66769,-16.47504 8.39013,-16.47504 2.1658,0 3.88594,2.76772 3.25478,5.23701 -1.12955,4.41922 -7.72987,13.76299 -9.72199,13.76299 -1.38952,0 -1.92292,-0.7004 -1.92292,-2.52496 z m 70.00512,-0.45072 c -0.82219,-0.51977 -1.58832,-2.16062 -1.70251,-3.64632 -0.1142,-1.48569 -0.5665,-2.96603 -1.00512,-3.28963 -1.45255,-1.07166 -3.29749,-5.02999 -3.29749,-7.0748 0,-2.15111 2.94518,-2.8815 3.07895,-0.76357 0.0632,1 0.17982,1 0.58333,0 0.27741,-0.6875 1.47939,-1.29486 2.67105,-1.34968 1.96857,-0.0906 1.93809,-0.16558 -0.33333,-0.82043 -1.89866,-0.54738 -2.45882,-1.33531 -2.3288,-3.27571 0.12331,-1.84017 -0.51933,-2.86958 -2.29705,-3.67957 -3.30983,-1.50806 -4.37415,-1.41672 -4.37415,0.37539 0,0.87011 -0.94484,1.52662 -2.25,1.56339 -2.22656,0.0627 -2.22804,0.0723 -0.14195,0.91526 2.14248,0.8658 3.39195,4.60333 3.39195,10.14635 0,1.58125 0.45,2.875 1,2.875 0.55,0 1,1.35 1,3 0,3.46321 -0.14767,3.49 -10.1392,1.83994 -8.80235,-1.45368 -10.42786,-3.35128 -9.52669,-11.12132 0.64416,-5.55398 3.90721,-9.71862 7.61466,-9.71862 1.89602,0 3.10034,-1.89394 3.60696,-5.67237 0.35618,-2.6564 -2.55062,-4.08814 -3.79296,-1.86821 -0.47418,0.84732 -1.26884,1.54058 -1.7659,1.54058 -0.49706,0 -2.90011,2.025 -5.34009,4.5 -4.85792,4.92763 -7.65733,5.58531 -12.69195,2.98181 -3.43212,-1.77481 -3.91687,-3.34196 -4.23096,-13.67825 -0.21449,-7.05875 -0.43424,-7.78831 -2.65216,-8.80524 -2.12774,-0.97558 -2.26448,-0.92347 -1.13812,0.43371 1.6116,1.94186 0.56326,4.97645 -1.45202,4.20311 -1.8878,-0.72442 -1.88718,0.3777 0.002,4.00055 0.82161,1.57537 1.49661,4.06683 1.5,5.53657 0.007,3.12319 -5.76401,11.1598 -8.37513,11.66265 -0.98257,0.18923 -6.13625,-2.5663 -11.45261,-6.12339 -5.31608,-3.5571 -11.57833,-7.65301 -13.91583,-9.10203 -2.96494,-1.83797 -4.25,-3.31651 -4.25,-4.8899 0,-3.2469 4.1499,-9.45173 7.03605,-9.71959 10.12653,-11.80984 17.17402,-21.18366 28.01798,-26.02236 3.95423,-1.63789 19.68088,-0.71635 26.12607,1.53092 6.92755,2.41547 17.54147,11.81654 20.87705,18.49147 3.96046,4.57334 15.80084,34.01001 9.74766,36 -0.71961,0 -0.71146,0.40758 0.0259,1.29609 1.13943,1.37293 1.26393,2.22369 1.50799,10.30455 0.0923,3.05798 -0.39414,5.76116 -1.2148,6.75 -1.50037,1.80783 -5.76509,2.16171 -8.11884,0.67368 z m 6.38789,-3.60611 c 1.06157,-2.76639 0.65637,-6.13234 -0.89301,-7.41821 -1.24819,-1.0359 -1.5,-0.90957 -1.5,0.75256 0,1.09859 -0.28125,3.40369 -0.625,5.12244 -0.48041,2.40207 -0.27383,3.125 0.89301,3.125 0.83491,0 1.79116,-0.7118 2.125,-1.58179 z m -17.39301,-3.77954 c 0,-0.89798 -0.81741,-1.20507 -2.40158,-0.90223 -1.76527,0.33745 -2.57023,-0.0722 -3.03807,-1.54629 -0.35007,-1.10297 -1.29435,-2.25784 -2.09842,-2.56638 -0.83769,-0.32146 -1.46193,-1.85539 -1.46193,-3.59238 0,-2.36472 0.43984,-3.03139 2,-3.03139 1.1,0 2,-0.45 2,-1 0,-1.43621 -2.18318,-1.17604 -4.43697,0.52876 -1.41316,1.06894 -1.95401,2.73762 -2,6.17061 -0.0541,4.04254 0.28918,4.88618 2.43697,5.9883 3.38356,1.73623 9,1.70566 9,-0.049 z m -38,-24.23385 c 0,-2.62069 -2.43391,-5.40482 -4.72494,-5.40482 -0.87014,0 -3.90415,-1.09852 -6.74224,-2.44115 -8.65742,-4.09561 -15.62891,-6.6175 -16.61265,-6.00951 -0.51392,0.31762 -1.57921,1.82443 -2.36733,3.34847 l -1.43293,2.77099 12.69005,8.55981 12.69004,8.5598 3.25,-3.56081 c 1.7875,-1.95845 3.25,-4.5787 3.25,-5.82278 z m 18.99018,6.10701 c 1.00022,-1.20519 0.92843,-1.60583 -0.37756,-2.10699 -1.90498,-0.73101 -2.15637,-4.01877 -0.36262,-4.74256 0.856,-0.3454 0.7772,-0.53121 -0.25,-0.58949 -0.825,-0.0468 -2.70708,-0.71487 -4.1824,-1.48458 -2.30206,-1.20103 -2.60592,-1.20016 -2.14301,0.006 0.29666,0.77306 0.0412,1.40559 -0.5676,1.40559 -0.60885,0 -1.10699,1.32448 -1.10699,2.9433 0,4.79512 6.19108,7.94124 8.99018,4.56853 z m 24.05688,-30.42389 c -1.82811,-3.41586 -11.41208,-11.23828 -16.95992,-13.84266 -4.17389,-1.95939 -7.55005,-2.6528 -14.75,-3.0294 -5.86223,-0.30664 -9.33714,-0.11758 -9.33714,0.50798 0,0.96047 21.61259,10.60262 35,15.61475 3.575,1.33845 6.62833,2.48481 6.78518,2.54747 0.15685,0.0627 -0.1753,-0.74651 -0.73812,-1.79814 z"
       id="path2996"
       inkscape:connector-curvature="0"
       sodipodi:nodetypes="ccccssssssscsssssssssscsssssssssssssssscssscsscccssscsscsscssscscccsssscssssssssscssssssscsssssssssssssssssssscsscssccccsccsssssscsssccscccsssscssssscsssccssssscccscscssscssssssssscscsssssccssssscscsccsscsssssssssssssssscsssssssssssssssssssscsssscsssssssssssssssscssscssssssssssccssssssssssssssssssssssscsscssssssssscssscscsssssssssscssscsssssssssscsssssssscsssssssssssssssssssssssssssscssssssscsssssssssscssssccsssssssssssssssssssssssssssssscsscsssssssssssssssscssssscsscssscssscsscssssscsssssssssssscssssssssssssssssscssssssssssssssssscssssssssssscssscscssssccsssssssssssssssccscssccsccccsccssssssssccsssscssssssscccsscsssscssccssssscs" />
  </g>
</svg>
