<?xml version="1.0" encoding="UTF-8" standalone="no"?>
<!-- Created with Inkscape (http://www.inkscape.org/) -->

<svg
   xmlns:dc="http://purl.org/dc/elements/1.1/"
   xmlns:cc="http://creativecommons.org/ns#"
   xmlns:rdf="http://www.w3.org/1999/02/22-rdf-syntax-ns#"
   xmlns:svg="http://www.w3.org/2000/svg"
   xmlns="http://www.w3.org/2000/svg"
   xmlns:xlink="http://www.w3.org/1999/xlink"
   xmlns:sodipodi="http://sodipodi.sourceforge.net/DTD/sodipodi-0.dtd"
   xmlns:inkscape="http://www.inkscape.org/namespaces/inkscape"
   width="400"
   height="400"
   id="svg2"
   version="1.1"
   inkscape:version="0.48.2 r9819"
   sodipodi:docname="template_multikill.svg">
  <defs
     id="defs4">
    <linearGradient
       id="linearGradient3772">
      <stop
         style="stop-color:#8e8e8e;stop-opacity:1;"
         offset="0"
         id="stop3774" />
      <stop
         style="stop-color:#8e8e8e;stop-opacity:0;"
         offset="1"
         id="stop3776" />
    </linearGradient>
    <filter
       inkscape:collect="always"
       id="filter3804">
      <feGaussianBlur
         inkscape:collect="always"
         stdDeviation="7.7415623"
         id="feGaussianBlur3806" />
    </filter>
    <filter
       inkscape:collect="always"
       id="filter3861">
      <feGaussianBlur
         inkscape:collect="always"
         stdDeviation="2.363757"
         id="feGaussianBlur3863" />
    </filter>
    <filter
       inkscape:collect="always"
       id="filter3944">
      <feGaussianBlur
         inkscape:collect="always"
         stdDeviation="2.7271716"
         id="feGaussianBlur3946" />
    </filter>
    <linearGradient
       id="linearGradient5606-7"
       y2="1024"
       xlink:href="#linearGradient3453-8"
       gradientUnits="userSpaceOnUse"
       x2="582.03998"
       y1="1102.4"
       x1="582.03998" />
    <linearGradient
       id="linearGradient3453-8">
      <stop
         id="stop3455-3"
         offset="0" />
      <stop
         id="stop3457-6"
         style="stop-opacity:0"
         offset="1" />
    </linearGradient>
    <filter
       id="filter3449-7"
       width="1.4396"
       y="-0.21978"
       x="-0.21978"
       height="1.4396"
       color-interpolation-filters="sRGB">
      <feGaussianBlur
         id="feGaussianBlur3451-8"
         stdDeviation="8.05845" />
    </filter>
    <linearGradient
       id="linearGradient3778"
       y2="1024"
       xlink:href="#linearGradient3453-8"
       gradientUnits="userSpaceOnUse"
       x2="582.03998"
       y1="1102.4"
       x1="582.03998" />
    <linearGradient
       id="linearGradient3780">
      <stop
         id="stop3782"
         offset="0" />
      <stop
         id="stop3784"
         style="stop-opacity:0"
         offset="1" />
    </linearGradient>
    <filter
       id="filter3786"
       width="1.4396"
       y="-0.21978"
       x="-0.21978"
       height="1.4396"
       color-interpolation-filters="sRGB">
      <feGaussianBlur
         id="feGaussianBlur3788"
         stdDeviation="8.05845" />
    </filter>
    <radialGradient
       id="radialGradient5610-5"
       gradientUnits="userSpaceOnUse"
       cy="1027.6"
       cx="540.90997"
       gradientTransform="matrix(1.7727,0,0,1.7727,-417.97,-794.04)"
       r="45.022999">
      <stop
         id="stop4246-6-3"
         style="stop-color:#babdb6"
         offset="0" />
      <stop
         id="stop4248-9-8"
         style="stop-color:#555753"
         offset="1" />
    </radialGradient>
    <clipPath
       id="clipPath12885-6"
       clipPathUnits="userSpaceOnUse">
      <path
         inkscape:connector-curvature="0"
         id="path12888-7"
         style="fill:#555753"
         d="m 600,1068 a 44,44 0 1 1 -88,0 44,44 0 1 1 88,0 z"
         transform="translate(-8,-8)" />
    </clipPath>
    <radialGradient
       id="radialGradient5612-3"
       gradientUnits="userSpaceOnUse"
       cy="1063.7"
       cx="556"
       gradientTransform="matrix(1.1388,0,0,1.2005,-77.2,-214.6)"
       r="44">
      <stop
         id="stop12865-0"
         style="stop-color:#babdb6"
         offset="0" />
      <stop
         id="stop12871-2"
         style="stop-color:#888a85"
         offset=".62351" />
      <stop
         id="stop12873-6"
         style="stop-color:#2e3436"
         offset=".80543" />
      <stop
         id="stop12867-9"
         style="stop-color:#fff"
         offset="1" />
    </radialGradient>
    <radialGradient
       id="radialGradient5614-3"
       gradientUnits="userSpaceOnUse"
       cy="1031.9"
       cx="540.88"
       gradientTransform="matrix(1.8605,0,0,1.8605,-459.48,-891.44)"
       r="44">
      <stop
         id="stop12899-8"
         style="stop-color:#fff"
         offset="0" />
      <stop
         id="stop3397-7"
         style="stop-color:#fff"
         offset=".23621" />
      <stop
         id="stop12901-65"
         style="stop-color:#fff;stop-opacity:0"
         offset="1" />
    </radialGradient>
    <filter
       id="filter12907-2"
       color-interpolation-filters="sRGB">
      <feGaussianBlur
         id="feGaussianBlur12909-4"
         stdDeviation="0.89191478" />
    </filter>
    <filter
       id="filter3806"
       color-interpolation-filters="sRGB">
      <feGaussianBlur
         id="feGaussianBlur3808"
         stdDeviation="0.89191478" />
    </filter>
    <linearGradient
       id="linearGradient5616-0"
       y2="1020.9"
       gradientUnits="userSpaceOnUse"
       x2="576.96002"
       y1="1094"
       x1="534.77002">
      <stop
         id="stop3582-6"
         style="stop-color:#fff"
         offset="0" />
      <stop
         id="stop3584-8"
         style="stop-color:#d3d7cf"
         offset="1" />
    </linearGradient>
    <linearGradient
       id="linearGradient6781-5"
       y2="91.981003"
       xlink:href="#linearGradient5530-4"
       gradientUnits="userSpaceOnUse"
       x2="144"
       y1="106.25"
       x1="144" />
    <linearGradient
       id="linearGradient5530-4">
      <stop
         id="stop5532-9"
         style="stop-color:#babdb6"
         offset="0" />
      <stop
         id="stop5534-4"
         style="stop-color:#555753"
         offset="1" />
    </linearGradient>
    <linearGradient
       id="linearGradient3817"
       y2="91.981003"
       xlink:href="#linearGradient5530-4"
       gradientUnits="userSpaceOnUse"
       x2="144"
       y1="106.25"
       x1="144" />
    <linearGradient
       id="linearGradient3819">
      <stop
         id="stop3821"
         style="stop-color:#babdb6"
         offset="0" />
      <stop
         id="stop3823"
         style="stop-color:#555753"
         offset="1" />
    </linearGradient>
    <linearGradient
       id="linearGradient6783-6"
       y2="221.92"
       xlink:href="#linearGradient5530-4"
       gradientUnits="userSpaceOnUse"
       x2="143.78"
       y1="235.92"
       x1="143.78" />
    <linearGradient
       id="linearGradient3826">
      <stop
         id="stop3828"
         style="stop-color:#babdb6"
         offset="0" />
      <stop
         id="stop3830"
         style="stop-color:#555753"
         offset="1" />
    </linearGradient>
    <linearGradient
       id="linearGradient3832"
       y2="221.92"
       xlink:href="#linearGradient5530-4"
       gradientUnits="userSpaceOnUse"
       x2="143.78"
       y1="235.92"
       x1="143.78" />
    <linearGradient
       id="linearGradient3834">
      <stop
         id="stop3836"
         style="stop-color:#babdb6"
         offset="0" />
      <stop
         id="stop3838"
         style="stop-color:#555753"
         offset="1" />
    </linearGradient>
    <linearGradient
       id="linearGradient6785-8"
       y2="157.49001"
       xlink:href="#linearGradient5530-4"
       gradientUnits="userSpaceOnUse"
       x2="211.03"
       y1="170.50999"
       x1="211.03" />
    <linearGradient
       id="linearGradient3841">
      <stop
         id="stop3843"
         style="stop-color:#babdb6"
         offset="0" />
      <stop
         id="stop3845"
         style="stop-color:#555753"
         offset="1" />
    </linearGradient>
    <linearGradient
       id="linearGradient3847"
       y2="157.49001"
       xlink:href="#linearGradient5530-4"
       gradientUnits="userSpaceOnUse"
       x2="211.03"
       y1="170.50999"
       x1="211.03" />
    <linearGradient
       id="linearGradient3849">
      <stop
         id="stop3851"
         style="stop-color:#babdb6"
         offset="0" />
      <stop
         id="stop3853"
         style="stop-color:#555753"
         offset="1" />
    </linearGradient>
    <linearGradient
       id="linearGradient6787-3"
       y2="157.23"
       xlink:href="#linearGradient5530-4"
       gradientUnits="userSpaceOnUse"
       x2="77.137001"
       y1="170.74001"
       x1="77.137001" />
    <linearGradient
       id="linearGradient3856">
      <stop
         id="stop3858"
         style="stop-color:#babdb6"
         offset="0" />
      <stop
         id="stop3860"
         style="stop-color:#555753"
         offset="1" />
    </linearGradient>
    <linearGradient
       id="linearGradient3862"
       y2="157.23"
       xlink:href="#linearGradient5530-4"
       gradientUnits="userSpaceOnUse"
       x2="77.137001"
       y1="170.74001"
       x1="77.137001" />
    <linearGradient
       id="linearGradient3864">
      <stop
         id="stop3866"
         style="stop-color:#babdb6"
         offset="0" />
      <stop
         id="stop3868"
         style="stop-color:#555753"
         offset="1" />
    </linearGradient>
    <linearGradient
       id="linearGradient5626-2"
       y2="1085.9"
       gradientUnits="userSpaceOnUse"
       x2="552.65002"
       y1="1111.3"
       x1="556">
      <stop
         id="stop4851-7-8-6"
         style="stop-color:#fff"
         offset="0" />
      <stop
         id="stop4853-4-4-2"
         style="stop-color:#fff;stop-opacity:0"
         offset="1" />
    </linearGradient>
    <filter
       id="filter4857-9-6-2"
       color-interpolation-filters="sRGB">
      <feGaussianBlur
         id="feGaussianBlur4859-2-9-4"
         stdDeviation="0.88" />
    </filter>
    <linearGradient
       id="linearGradient6872-3"
       y2="363.10999"
       gradientUnits="userSpaceOnUse"
       x2="717.62"
       gradientTransform="matrix(1,0,0,0.64286,307.36,-268.66)"
       y1="374.89999"
       x1="720.78003">
      <stop
         id="stop4266-7-9-5-9-4"
         offset="0" />
      <stop
         id="stop4268-3-7-7-3-3"
         style="stop-color:#888a85"
         offset="1" />
    </linearGradient>
    <linearGradient
       id="linearGradient6869-9"
       y2="363.10999"
       gradientUnits="userSpaceOnUse"
       x2="717.62"
       gradientTransform="translate(-1428.8,365.15)"
       y1="374.89999"
       x1="720.78003">
      <stop
         id="stop4266-78-1-3-0"
         offset="0" />
      <stop
         id="stop4268-2-9-7-9"
         style="stop-color:#888a85"
         offset="1" />
    </linearGradient>
    <radialGradient
       id="radialGradient6576-6"
       gradientUnits="userSpaceOnUse"
       cx="549.58002"
       cy="1053.6"
       r="44"
       gradientTransform="matrix(1.3773,-1.7912e-7,1.7912e-7,1.3773,-207.84,-395.55)">
      <stop
         id="stop3543-20-4"
         style="stop-color:#fff"
         offset="0" />
      <stop
         id="stop5354-2-1"
         style="stop-color:#babdb6"
         offset=".30515" />
      <stop
         id="stop5352-17-3"
         style="stop-color:#555753"
         offset=".63299" />
      <stop
         id="stop3545-51-0"
         style="stop-color:#888a85"
         offset=".85721" />
      <stop
         id="stop3547-7-2"
         style="stop-color:#2e3436"
         offset="1" />
    </radialGradient>
    <radialGradient
       id="radialGradient6295-0"
       gradientUnits="userSpaceOnUse"
       cy="1115.4"
       cx="556"
       gradientTransform="matrix(0.99363,0,0,0.34956,3.5429,708.68)"
       r="44">
      <stop
         id="stop13251-6-5"
         style="stop-color:#fff"
         offset="0" />
      <stop
         id="stop13253-9-5"
         style="stop-color:#fff;stop-opacity:0"
         offset="1" />
    </radialGradient>
    <radialGradient
       id="radialGradient6297-8"
       gradientUnits="userSpaceOnUse"
       cy="1032.5"
       cx="539.14001"
       gradientTransform="matrix(2.5434,0,0,1.5532,-832.13,-571.18)"
       r="44">
      <stop
         id="stop4256-17"
         style="stop-color:#fff"
         offset="0" />
      <stop
         id="stop4258-0"
         style="stop-color:#fff;stop-opacity:0"
         offset="1" />
    </radialGradient>
    <linearGradient
       y2="1024"
       x2="582.03998"
       y1="1102.4"
       x1="582.03998"
       gradientUnits="userSpaceOnUse"
       id="linearGradient3944"
       xlink:href="#linearGradient3453-8"
       inkscape:collect="always" />
  </defs>
  <sodipodi:namedview
     id="base"
     pagecolor="#ffffff"
     bordercolor="#666666"
     borderopacity="1.0"
     inkscape:pageopacity="0.0"
     inkscape:pageshadow="2"
     inkscape:zoom="0.74953319"
     inkscape:cx="147.58651"
     inkscape:cy="176.50034"
     inkscape:document-units="px"
     inkscape:current-layer="layer1"
     showgrid="false"
     inkscape:window-width="1024"
     inkscape:window-height="576"
     inkscape:window-x="0"
     inkscape:window-y="24"
     inkscape:window-maximized="1" />
  <metadata
     id="metadata7">
    <rdf:RDF>
      <cc:Work
         rdf:about="">
        <dc:format>image/svg+xml</dc:format>
        <dc:type
           rdf:resource="http://purl.org/dc/dcmitype/StillImage" />
        <dc:title></dc:title>
      </cc:Work>
    </rdf:RDF>
  </metadata>
  <g
     inkscape:label="Layer 1"
     inkscape:groupmode="layer"
     id="layer1"
     transform="translate(0,-652.36218)">
    <path
       sodipodi:type="arc"
       style="fill:none;stroke:none"
       id="path2987"
       sodipodi:cx="29.294424"
       sodipodi:cy="32.809551"
       sodipodi:rx="20.203051"
       sodipodi:ry="20.708128"
       d="m 49.497475,32.809551 c 0,11.436784 -9.045214,20.708128 -20.203051,20.708128 -11.157837,0 -20.2030506,-9.271344 -20.2030506,-20.708128 0,-11.436783 9.0452136,-20.708128 20.2030506,-20.708128 11.157837,0 20.203051,9.271345 20.203051,20.708128 z"
       transform="translate(0,652.36218)" />
    <path
       sodipodi:type="arc"
       style="fill:#000000;fill-opacity:1;stroke:none"
       id="path2989"
       sodipodi:cx="200.26274"
       sodipodi:cy="194.93903"
       sodipodi:rx="196.97975"
       sodipodi:ry="196.97975"
       d="m 397.24249,194.93903 c 0,108.78891 -88.19084,196.97975 -196.97975,196.97975 -108.788912,0 -196.9797505,-88.19084 -196.9797505,-196.97975 0,-108.788917 88.1908385,-196.9797557 196.9797505,-196.9797557 108.78891,0 196.97975,88.1908387 196.97975,196.9797557 z"
       transform="translate(0,657.41294)" />
    <path
       sodipodi:type="arc"
       style="fill:#474747;fill-opacity:1;stroke:none;filter:url(#filter3861)"
       id="path2989-1"
       sodipodi:cx="200.26274"
       sodipodi:cy="194.93903"
       sodipodi:rx="196.97975"
       sodipodi:ry="196.97975"
       d="m 397.24249,194.93903 c 0,108.78891 -88.19084,196.97975 -196.97975,196.97975 -108.788912,0 -196.9797505,-88.19084 -196.9797505,-196.97975 0,-108.788917 88.1908385,-196.9797557 196.9797505,-196.9797557 108.78891,0 196.97975,88.1908387 196.97975,196.9797557 z"
       transform="translate(0,657.41294)" />
    <path
       sodipodi:type="arc"
       style="fill:#c8c8c8;stroke:#ffffff;stroke-opacity:1;stroke-width:9;stroke-miterlimit:4;stroke-dasharray:none;filter:url(#filter3804);opacity:0.84888889000000001;fill-opacity:1"
       id="path2989-1-8"
       sodipodi:cx="200.26274"
       sodipodi:cy="194.93903"
       sodipodi:rx="196.97975"
       sodipodi:ry="196.97975"
       d="m 397.24249,194.93903 c 0,108.78891 -88.19084,196.97975 -196.97975,196.97975 -108.788912,0 -196.9797505,-88.19084 -196.9797505,-196.97975 0,-108.788917 88.1908385,-196.9797557 196.9797505,-196.9797557 108.78891,0 196.97975,88.1908387 196.97975,196.9797557 z"
       transform="matrix(0.9,0,0,0.9,20.026274,676.90684)" />
    <g
       transform="matrix(5.5896828,0,0,5.5896828,64.381545,-4896.4455)"
       id="g3088">
      <g
         transform="matrix(0.22543,0,0,0.23296,-7.4508,988.13)"
         style="enable-background:new"
         id="use6074">
        <path
           inkscape:connector-curvature="0"
           transform="matrix(1.7516,0,0,0.4744,-829.9,-261)"
           d="m 600,1068 c 0,24.3 -19.699,44 -44,44 -24.301,0 -44,-19.7 -44,-44 0,-24.3 19.699,-44 44,-44 24.301,0 44,19.7 44,44 z"
           style="opacity:0.4;fill:url(#linearGradient3944);filter:url(#filter3449-7);enable-background:new"
           id="path4544" />
        <path
           inkscape:connector-curvature="0"
           transform="matrix(1.2481,0,0,0.33803,-549.96,-111.36)"
           d="m 600,1068 c 0,24.3 -19.699,44 -44,44 -24.301,0 -44,-19.7 -44,-44 0,-24.3 19.699,-44 44,-44 24.301,0 44,19.7 44,44 z"
           style="opacity:0.8;fill:url(#linearGradient5606-7);filter:url(#filter3449-7);enable-background:new"
           id="path4546" />
      </g>
      <g
         transform="translate(-694.98,648.36)"
         style="enable-background:new"
         id="use6076">
        <path
           inkscape:connector-curvature="0"
           transform="matrix(0.47727,0,0,0.47727,454.64,-130.73)"
           d="m 600,1068 c 0,24.3 -19.699,44 -44,44 -24.301,0 -44,-19.7 -44,-44 0,-24.3 19.699,-44 44,-44 24.301,0 44,19.7 44,44 z"
           style="fill:none;stroke:url(#radialGradient5610-5);stroke-width:4.19049978;enable-background:new"
           id="path4448" />
        <g
           transform="matrix(0.21875,0,0,0.21875,688.5,343.12)"
           id="g4450">
          <g
             transform="matrix(2.1818,0,0,2.1818,-1051.6,-2148.7)"
             style="enable-background:new"
             id="g4452">
            <g
               clip-path="url(#clipPath12885-6)"
               id="g4454">
              <path
                 inkscape:connector-curvature="0"
                 transform="translate(-8,-8)"
                 d="m 600,1068 c 0,24.3 -19.699,44 -44,44 -24.301,0 -44,-19.7 -44,-44 0,-24.3 19.699,-44 44,-44 24.301,0 44,19.7 44,44 z"
                 style="fill:url(#radialGradient5612-3)"
                 id="path4456" />
              <path
                 inkscape:connector-curvature="0"
                 transform="translate(-8,-8)"
                 d="m 600,1068 c 0,24.3 -19.699,44 -44,44 -24.301,0 -44,-19.7 -44,-44 0,-24.3 19.699,-44 44,-44 24.301,0 44,19.7 44,44 z"
                 style="fill:url(#radialGradient5614-3)"
                 id="path4458" />
              <path
                 inkscape:connector-curvature="0"
                 transform="matrix(0.83749,0,0,0.83749,82.355,165.56)"
                 d="m 600,1068 c 0,24.3 -19.699,44 -44,44 -24.301,0 -44,-19.7 -44,-44 0,-24.3 19.699,-44 44,-44 24.301,0 44,19.7 44,44 z"
                 style="fill:#888a85;stroke:#888a85;stroke-width:5.00360012;stroke-linecap:round;stroke-linejoin:round;filter:url(#filter12907-2)"
                 id="path4460" />
            </g>
            <path
               inkscape:connector-curvature="0"
               transform="matrix(0.8052,0,0,0.8052,100.31,200.04)"
               d="m 600,1068 c 0,24.3 -19.699,44 -44,44 -24.301,0 -44,-19.7 -44,-44 0,-24.3 19.699,-44 44,-44 24.301,0 44,19.7 44,44 z"
               style="fill:#888a85;stroke:#2e3436;stroke-width:2.6020999;stroke-linecap:round;stroke-linejoin:round;filter:url(#filter12907-2)"
               id="path4462" />
          </g>
          <g
             transform="translate(10,0)"
             id="g4464">
            <path
               inkscape:connector-curvature="0"
               transform="matrix(1.7662,0,0,1.7662,-848.02,-1722.3)"
               d="m 600,1068 c 0,24.3 -19.699,44 -44,44 -24.301,0 -44,-19.7 -44,-44 0,-24.3 19.699,-44 44,-44 24.301,0 44,19.7 44,44 z"
               style="fill:url(#linearGradient5616-0);enable-background:new"
               id="path4466" />
            <g
               transform="matrix(1.0457,0,0,1.0457,-16.576,-7.4898)"
               style="opacity:0.2"
               id="g4468">
              <path
                 inkscape:connector-curvature="0"
                 transform="matrix(0.059049,0.034092,-0.034092,0.059049,180.08,25.689)"
                 d="m 600,1068 c 0,24.3 -19.699,44 -44,44 -24.301,0 -44,-19.7 -44,-44 0,-24.3 19.699,-44 44,-44 24.301,0 44,19.7 44,44 z"
                 style="enable-background:new"
                 id="path4470" />
              <path
                 inkscape:connector-curvature="0"
                 transform="matrix(0.059049,0.034092,-0.034092,0.059049,115.08,138.27)"
                 d="m 600,1068 c 0,24.3 -19.699,44 -44,44 -24.301,0 -44,-19.7 -44,-44 0,-24.3 19.699,-44 44,-44 24.301,0 44,19.7 44,44 z"
                 style="enable-background:new"
                 id="path4472" />
              <path
                 inkscape:connector-curvature="0"
                 transform="matrix(0.034092,0.059049,-0.059049,0.034092,244.4,62.259)"
                 d="m 600,1068 c 0,24.3 -19.699,44 -44,44 -24.301,0 -44,-19.7 -44,-44 0,-24.3 19.699,-44 44,-44 24.301,0 44,19.7 44,44 z"
                 style="enable-background:new"
                 id="path4474" />
              <path
                 inkscape:connector-curvature="0"
                 transform="matrix(0.034092,0.059049,-0.059049,0.034092,131.82,127.26)"
                 d="m 600,1068 c 0,24.3 -19.699,44 -44,44 -24.301,0 -44,-19.7 -44,-44 0,-24.3 19.699,-44 44,-44 24.301,0 44,19.7 44,44 z"
                 style="enable-background:new"
                 id="path4476" />
              <path
                 inkscape:connector-curvature="0"
                 transform="matrix(-0.059049,0.034092,0.034092,0.059049,107.92,25.689)"
                 d="m 600,1068 c 0,24.3 -19.699,44 -44,44 -24.301,0 -44,-19.7 -44,-44 0,-24.3 19.699,-44 44,-44 24.301,0 44,19.7 44,44 z"
                 style="enable-background:new"
                 id="path4478" />
              <path
                 inkscape:connector-curvature="0"
                 transform="matrix(-0.059049,0.034092,0.034092,0.059049,172.92,138.27)"
                 d="m 600,1068 c 0,24.3 -19.699,44 -44,44 -24.301,0 -44,-19.7 -44,-44 0,-24.3 19.699,-44 44,-44 24.301,0 44,19.7 44,44 z"
                 style="enable-background:new"
                 id="path4480" />
              <path
                 inkscape:connector-curvature="0"
                 transform="matrix(-0.034092,0.059049,0.059049,0.034092,43.599,62.259)"
                 d="m 600,1068 c 0,24.3 -19.699,44 -44,44 -24.301,0 -44,-19.7 -44,-44 0,-24.3 19.699,-44 44,-44 24.301,0 44,19.7 44,44 z"
                 style="enable-background:new"
                 id="path4482" />
              <path
                 inkscape:connector-curvature="0"
                 transform="matrix(-0.034092,0.059049,0.059049,0.034092,156.18,127.26)"
                 d="m 600,1068 c 0,24.3 -19.699,44 -44,44 -24.301,0 -44,-19.7 -44,-44 0,-24.3 19.699,-44 44,-44 24.301,0 44,19.7 44,44 z"
                 style="enable-background:new"
                 id="path4484" />
            </g>
            <g
               transform="translate(-10,0)"
               id="g4486">
              <text
                 style="font-size:20px;font-weight:bold;text-align:center;text-anchor:middle;fill:#ffffff;stroke:#ffffff;stroke-width:4.57140017;enable-background:new;font-family:Liberation Sans"
                 xml:space="preserve"
                 x="143.77536"
                 y="106.96484"
                 id="text4488"><tspan
                   y="106.96484"
                   style="stroke-width:4.57140017"
                   x="143.77536"
                   id="tspan4490">12</tspan></text>
              <text
                 style="font-size:20px;font-weight:bold;text-align:center;text-anchor:middle;fill:url(#linearGradient6781-5);font-family:Liberation Sans"
                 xml:space="preserve"
                 x="143.77536"
                 y="105.96484"
                 id="text4492"><tspan
                   y="105.96484"
                   style="fill:url(#linearGradient6781-5)"
                   x="143.77536"
                   id="tspan4494">12</tspan></text>
              <text
                 style="font-size:20px;font-weight:bold;text-align:center;text-anchor:middle;fill:#ffffff;stroke:#ffffff;stroke-width:4.57140017;enable-background:new;font-family:Liberation Sans"
                 xml:space="preserve"
                 x="143.77536"
                 y="236.80469"
                 id="text4496"><tspan
                   y="236.80469"
                   style="stroke-width:4.57140017"
                   x="143.77536"
                   id="tspan4498">6</tspan></text>
              <text
                 style="font-size:20px;font-weight:bold;text-align:center;text-anchor:middle;fill:url(#linearGradient6783-6);enable-background:new;font-family:Liberation Sans"
                 xml:space="preserve"
                 x="143.77536"
                 y="235.80469"
                 id="text4500"><tspan
                   y="235.80469"
                   style="fill:url(#linearGradient6783-6)"
                   x="143.77536"
                   id="tspan4502">6</tspan></text>
              <text
                 style="font-size:20px;font-weight:bold;text-align:center;text-anchor:middle;fill:#ffffff;stroke:#ffffff;stroke-width:4.57140017;enable-background:new;font-family:Liberation Sans"
                 xml:space="preserve"
                 x="211.16602"
                 y="171.87004"
                 id="text4504"><tspan
                   y="171.87004"
                   style="stroke-width:4.57140017"
                   x="211.16602"
                   id="tspan4506">3</tspan></text>
              <text
                 style="font-size:20px;font-weight:bold;text-align:center;text-anchor:middle;fill:url(#linearGradient6785-8);enable-background:new;font-family:Liberation Sans"
                 xml:space="preserve"
                 x="211.16602"
                 y="170.87004"
                 id="text4508"><tspan
                   y="170.87004"
                   style="fill:url(#linearGradient6785-8)"
                   x="211.16602"
                   id="tspan4510">3</tspan></text>
              <text
                 style="font-size:20px;font-weight:bold;text-align:center;text-anchor:middle;fill:#ffffff;stroke:#ffffff;stroke-width:4.57140017;enable-background:new;font-family:Liberation Sans"
                 xml:space="preserve"
                 x="77.166023"
                 y="171.87004"
                 id="text4512"><tspan
                   y="171.87004"
                   style="stroke-width:4.57140017"
                   x="77.166023"
                   id="tspan4514">9</tspan></text>
              <text
                 style="font-size:20px;font-weight:bold;text-align:center;text-anchor:middle;fill:url(#linearGradient6787-3);enable-background:new;font-family:Liberation Sans"
                 xml:space="preserve"
                 x="77.166023"
                 y="170.87004"
                 id="text4516"><tspan
                   y="170.87004"
                   style="fill:url(#linearGradient6787-3)"
                   x="77.166023"
                   id="tspan4518">9</tspan></text>
            </g>
          </g>
        </g>
        <path
           inkscape:connector-curvature="0"
           transform="matrix(0.46591,0,0,0.46591,460.95,-118.59)"
           d="m 600,1068 c 0,24.3 -19.699,44 -44,44 -24.301,0 -44,-19.7 -44,-44 0,-24.3 19.699,-44 44,-44 24.301,0 44,19.7 44,44 z"
           style="opacity:0.2;fill:none;stroke:#ffffff;stroke-width:2.14630008;enable-background:new"
           id="path4520" />
        <path
           inkscape:connector-curvature="0"
           transform="matrix(0.41721,0,0,0.41721,488.16,-66.582)"
           d="m 600,1068 c 0,24.3 -19.699,44 -44,44 -24.301,0 -44,-19.7 -44,-44 0,-24.3 19.699,-44 44,-44 24.301,0 44,19.7 44,44 z"
           style="opacity:0.55506999;fill:none;stroke:url(#linearGradient5626-2);stroke-width:2.39689994;filter:url(#filter4857-9-6-2);enable-background:new"
           id="path4522" />
      </g>
      <rect
         x="1027.4"
         y="-35.021"
         width="2"
         height="9"
         transform="matrix(0,1,-1,0,0,0)"
         style="opacity:0.1;color:#000000;enable-background:new"
         id="rect4262-7-7-9-0-7" />
      <rect
         x="-710.46997"
         y="730.84998"
         width="2"
         height="14"
         transform="matrix(0.70710678,-0.70710678,0.70710678,0.70710678,0,0)"
         style="opacity:0.1;color:#000000;enable-background:new"
         id="rect4262-77-9-6-1" />
      <rect
         x="1026.4"
         y="-34.021"
         width="2"
         height="9"
         transform="matrix(0,1,-1,0,0,0)"
         style="color:#000000;fill:url(#linearGradient6872-3);enable-background:new"
         id="rect4262-7-7-8-1" />
      <rect
         x="-709.76001"
         y="730.15002"
         width="2"
         height="14"
         transform="matrix(0.70710678,-0.70710678,0.70710678,0.70710678,0,0)"
         style="color:#000000;fill:url(#linearGradient6869-9);enable-background:new"
         id="rect4262-77-97-1" />
      <path
         inkscape:connector-curvature="0"
         transform="matrix(0.056812,0,0,0.056812,-6.5661,966.69)"
         d="m 600,1068 a 44,44 0 1 1 -88,0 44,44 0 1 1 88,0 z"
         style="fill:url(#radialGradient6576-6);stroke:#555753;stroke-width:17.60199928;enable-background:new"
         id="use4604-0-7" />
      <g
         transform="matrix(0.94444,0,0,0.94444,-654.98,669.42)"
         style="enable-background:new"
         id="use6078">
        <path
           inkscape:connector-curvature="0"
           transform="matrix(0.39773,0,0,0.39773,498.86,-45.773)"
           d="m 600,1068 c 0,24.3 -19.699,44 -44,44 -24.301,0 -44,-19.7 -44,-44 0,-24.3 19.699,-44 44,-44 24.301,0 44,19.7 44,44 z"
           style="opacity:0.7;fill:url(#radialGradient6295-0);stroke:#babdb6;stroke-width:2.66219997;enable-background:new"
           id="path4438" />
        <path
           inkscape:connector-curvature="0"
           transform="matrix(0.25912,0,0,0.15265,575.93,206.95)"
           d="m 600,1068 c 0,24.3 -19.699,44 -44,44 -24.301,0 -44,-19.7 -44,-44 0,-24.3 19.699,-44 44,-44 24.301,0 44,19.7 44,44 z"
           style="opacity:0.86977001;fill:url(#radialGradient6297-8);enable-background:new"
           id="path4440" />
      </g>
    </g>
    <text
       xml:space="preserve"
       style="font-size:325.91079712px;font-style:normal;font-variant:normal;font-weight:normal;font-stretch:normal;text-align:start;line-height:125%;letter-spacing:0px;word-spacing:0px;writing-mode:lr-tb;text-anchor:start;fill:#000000;fill-opacity:1;stroke:none;font-family:UnBatang;-inkscape-font-specification:UnBatang"
       x="117.47649"
       y="962.27368"
       id="text3865"
       sodipodi:linespacing="125%"><tspan
         sodipodi:role="line"
         id="tspan3867"
         x="117.47649"
         y="962.27368">#</tspan></text>
  </g>
  <g
     inkscape:groupmode="layer"
     id="layer2"
     inkscape:label="genblur" />
</svg>
