<?xml version="1.0" encoding="UTF-8" standalone="no"?>
<!-- Created with Inkscape (http://www.inkscape.org/) -->

<svg
   xmlns:dc="http://purl.org/dc/elements/1.1/"
   xmlns:cc="http://creativecommons.org/ns#"
   xmlns:rdf="http://www.w3.org/1999/02/22-rdf-syntax-ns#"
   xmlns:svg="http://www.w3.org/2000/svg"
   xmlns="http://www.w3.org/2000/svg"
   xmlns:xlink="http://www.w3.org/1999/xlink"
   xmlns:sodipodi="http://sodipodi.sourceforge.net/DTD/sodipodi-0.dtd"
   xmlns:inkscape="http://www.inkscape.org/namespaces/inkscape"
   width="400"
   height="400"
   id="svg2"
   version="1.1"
   inkscape:version="0.48.2 r9819"
   sodipodi:docname="bloody_shoe.svg">
  <defs
     id="defs4">
    <linearGradient
       id="linearGradient4306">
      <stop
         style="stop-color:#b40000;stop-opacity:1;"
         offset="0"
         id="stop4308" />
      <stop
         style="stop-color:#c80000;stop-opacity:0;"
         offset="1"
         id="stop4310" />
    </linearGradient>
    <linearGradient
       id="linearGradient3772">
      <stop
         style="stop-color:#8e8e8e;stop-opacity:1;"
         offset="0"
         id="stop3774" />
      <stop
         style="stop-color:#8e8e8e;stop-opacity:0;"
         offset="1"
         id="stop3776" />
    </linearGradient>
    <filter
       inkscape:collect="always"
       id="filter3804">
      <feGaussianBlur
         inkscape:collect="always"
         stdDeviation="7.7415623"
         id="feGaussianBlur3806" />
    </filter>
    <filter
       inkscape:collect="always"
       id="filter3861">
      <feGaussianBlur
         inkscape:collect="always"
         stdDeviation="2.363757"
         id="feGaussianBlur3863" />
    </filter>
    <linearGradient
       inkscape:collect="always"
       xlink:href="#linearGradient4306"
       id="linearGradient4312"
       x1="257.49359"
       y1="850.90344"
       x2="320.86636"
       y2="968.30988"
       gradientUnits="userSpaceOnUse" />
  </defs>
  <sodipodi:namedview
     id="base"
     pagecolor="#ffffff"
     bordercolor="#666666"
     borderopacity="1.0"
     inkscape:pageopacity="0.0"
     inkscape:pageshadow="2"
     inkscape:zoom="0.53"
     inkscape:cx="-525.28865"
     inkscape:cy="-44.898955"
     inkscape:document-units="px"
     inkscape:current-layer="layer1"
     showgrid="false"
     inkscape:window-width="1920"
     inkscape:window-height="997"
     inkscape:window-x="0"
     inkscape:window-y="30"
     inkscape:window-maximized="1" />
  <metadata
     id="metadata7">
    <rdf:RDF>
      <cc:Work
         rdf:about="">
        <dc:format>image/svg+xml</dc:format>
        <dc:type
           rdf:resource="http://purl.org/dc/dcmitype/StillImage" />
        <dc:title></dc:title>
      </cc:Work>
    </rdf:RDF>
  </metadata>
  <g
     inkscape:label="Layer 1"
     inkscape:groupmode="layer"
     id="layer1"
     transform="translate(0,-652.36218)">
    <path
       sodipodi:type="arc"
       style="fill:#000000;fill-opacity:1;stroke:none"
       id="path2989"
       sodipodi:cx="200.26274"
       sodipodi:cy="194.93903"
       sodipodi:rx="196.97975"
       sodipodi:ry="196.97975"
       d="m 397.24249,194.93903 c 0,108.78891 -88.19084,196.97975 -196.97975,196.97975 -108.788912,0 -196.9797505,-88.19084 -196.9797505,-196.97975 0,-108.788917 88.1908385,-196.9797557 196.9797505,-196.9797557 108.78891,0 196.97975,88.1908387 196.97975,196.9797557 z"
       transform="translate(0,657.41294)" />
    <path
       sodipodi:type="arc"
       style="fill:#474747;fill-opacity:1;stroke:none;filter:url(#filter3861)"
       id="path2989-1"
       sodipodi:cx="200.26274"
       sodipodi:cy="194.93903"
       sodipodi:rx="196.97975"
       sodipodi:ry="196.97975"
       d="m 397.24249,194.93903 c 0,108.78891 -88.19084,196.97975 -196.97975,196.97975 -108.788912,0 -196.9797505,-88.19084 -196.9797505,-196.97975 0,-108.788917 88.1908385,-196.9797557 196.9797505,-196.9797557 108.78891,0 196.97975,88.1908387 196.97975,196.9797557 z"
       transform="translate(0,657.41294)" />
    <path
       sodipodi:type="arc"
       style="fill:#c8c8c8;stroke:#ffffff;stroke-opacity:1;stroke-width:9;stroke-miterlimit:4;stroke-dasharray:none;filter:url(#filter3804);opacity:0.84888889000000001;fill-opacity:1"
       id="path2989-1-8"
       sodipodi:cx="200.26274"
       sodipodi:cy="194.93903"
       sodipodi:rx="196.97975"
       sodipodi:ry="196.97975"
       d="m 397.24249,194.93903 c 0,108.78891 -88.19084,196.97975 -196.97975,196.97975 -108.788912,0 -196.9797505,-88.19084 -196.9797505,-196.97975 0,-108.788917 88.1908385,-196.9797557 196.9797505,-196.9797557 108.78891,0 196.97975,88.1908387 196.97975,196.9797557 z"
       transform="matrix(0.9,0,0,0.9,20.026274,676.90684)" />
    <path
       id="path4240"
       style="fill:url(#linearGradient4312);fill-opacity:1.0"
       d="m 251.94655,886.61378 c -0.35166,-2.62118 -0.36362,-2.63213 -2.20139,-2.01796 -1.55814,0.52073 -1.77631,0.89825 -1.39172,2.40817 0.49964,1.96163 1.48221,3.02977 2.68151,2.91503 1.19291,-0.11412 1.29169,-0.47226 0.9116,-3.30524 z m 15.60206,-1.52068 c 0.14633,-1.15642 -0.48257,-1.44667 -3.72649,-1.71983 -2.14639,-0.18074 -5.46748,-0.13318 -7.38019,0.10568 l -3.47764,0.43428 2.36311,1.23252 c 1.97202,1.02852 2.25301,1.50604 1.69787,2.88519 -1.00583,2.49872 0.3062,2.89054 2.15965,0.64494 1.54175,-1.86795 1.7342,-1.8698 3.23141,-0.0311 1.50673,1.85041 1.68215,1.84492 3.27414,-0.10267 0.92542,-1.13158 1.76132,-2.68388 1.85814,-3.44903 z m -5.8162,9.55903 c -0.17125,-0.50458 -0.6794,-0.47153 -1.12924,0.0735 -0.44982,0.545 -0.53184,1.22697 -0.18226,1.51551 0.34958,0.28853 0.85773,0.25546 1.12924,-0.0735 0.2715,-0.32895 0.35352,-1.01092 0.18226,-1.51551 z m -4.52964,13.18482 c -3.113,0.82592 -6.0357,1.0695 -6.65907,0.55498 -1.99182,-1.64398 -3.33355,-9.09172 -1.9417,-10.77805 0.92291,-1.11817 1.61612,-1.24513 2.55726,-0.46834 1.3641,1.12589 1.83877,0.9501 5.18108,-1.91868 l 2.09274,-1.79624 -2.90633,-0.47815 c -1.59848,-0.26299 -3.94925,-0.25702 -5.22394,0.0133 -2.99402,0.63486 -3.28631,0.33229 -4.19144,-4.33871 -1.07786,-5.56247 0.27701,-6.71505 9.04851,-7.69759 7.5497,-0.84568 14.44662,0.0224 15.53923,1.95586 0.40141,0.71032 -0.42776,2.62563 -2.38079,5.49937 -1.64818,2.42519 -3.15769,5.20933 -3.35447,6.18697 -0.6159,3.05997 -3.30979,5.66706 -5.10786,4.94329 -1.79823,-0.72385 -2.78895,-0.0356 -1.92855,1.33974 0.31171,0.49825 1.48043,0.72056 2.59718,0.49405 1.44029,-0.29214 2.32877,0.05 3.05679,1.17731 1.49162,2.30959 -0.11822,3.64997 -6.37864,5.31093 z m 25.64905,-29.84636 c -2.62827,0.11978 -2.67717,0.9407 -0.0871,1.46203 1.06527,0.21442 1.99705,-0.0485 2.07062,-0.58434 0.0825,-0.60062 -0.67816,-0.93718 -1.98353,-0.87769 z m -1.59957,3.97958 c -5.27447,-1.48041 -7.66497,-2.99313 -6.63117,-4.19624 1.21825,-1.41775 10.06256,-3.18199 11.20884,-2.23588 1.72378,1.42275 2.43781,5.08995 1.2672,6.50823 -0.76696,0.92923 -2.33574,0.9088 -5.84487,-0.0761 z m -13.97959,21.86572 c -2.60428,-3.15206 5.00464,-20.27745 8.49001,-19.10844 2.11179,0.7083 1.56134,2.63804 -2.00456,7.02728 -2.37576,2.92426 -3.24481,4.75093 -3.65055,7.67282 -0.62581,4.50672 -1.5571,5.9549 -2.8349,4.40834 z m 31.47942,-29.26646 c 0.79938,-1.80518 0.71902,-1.8238 -2.37738,-0.55093 -3.17005,1.30313 -3.19948,1.33822 -2.72079,3.24414 0.2662,1.05975 0.71534,2.11775 0.99811,2.35113 0.59831,0.49384 2.9035,-2.34226 4.10007,-5.04433 z m 4.24921,-2.87157 c -2.00029,0.654 -2.33963,1.50474 -0.59833,1.50003 0.87707,-0.002 1.65358,-0.43341 1.7256,-0.95785 0.0795,-0.57921 -0.363,-0.79205 -1.12727,-0.54218 z m -4.35773,10.23562 c -0.88398,0.20356 -2.17396,0.18284 -2.86661,-0.0461 -0.74709,-0.24688 -0.56522,0.1911 0.44708,1.07667 1.37597,1.20374 1.93116,1.21264 2.86662,0.0461 1.01702,-1.26832 0.96187,-1.40112 -0.44709,-1.07666 z m 12.83216,-2.77591 c -1.07935,0.29845 -3.05726,1.45607 -4.39538,2.57251 -1.3381,1.11643 -2.9783,1.84696 -3.64486,1.62339 -0.78982,-0.26491 -1.5034,0.20606 -2.04875,1.35219 -1.12279,2.35969 -3.96325,2.53853 -6.53999,0.41178 -2.28231,-1.88376 -5.30475,-9.91734 -4.22385,-11.22693 0.3716,-0.45022 3.29277,-1.77964 6.49149,-2.95428 3.19873,-1.17463 7.55893,-2.93496 9.68935,-3.91186 2.13043,-0.97688 4.46884,-1.57648 5.19649,-1.33243 1.6175,0.54253 2.18077,2.96242 1.0161,4.36537 -1.11564,1.34392 -9.61048,5.91423 -11.29164,6.07506 -0.71521,0.0684 -1.87724,0.87449 -2.5823,1.79125 -0.9279,1.20657 0.70918,0.74252 5.92848,-1.68043 8.63402,-4.00817 9.88953,-4.25033 10.31957,-1.99046 0.3859,2.02781 -1.34276,4.19369 -3.91471,4.90484 z m -53.64978,38.52577 c -0.24174,-0.15816 -1.1119,-0.50566 -1.93376,-0.77216 -1.29799,-0.42088 -1.37112,-0.1442 -0.55674,2.10627 0.93538,2.58484 0.93983,2.58662 1.93376,0.77216 0.54792,-1.00026 0.79845,-1.94807 0.55674,-2.10627 z m 17.44506,5.1262 c -0.72809,-0.24421 -1.7424,-0.7895 -2.25401,-1.21178 -0.71887,-0.59332 -1.25257,-0.18405 -2.34899,1.80128 -1.30399,2.3612 -1.54324,2.46631 -2.95718,1.29929 -1.2878,-1.06291 -2.13399,-0.88694 -5.19434,1.0801 l -3.65591,2.34988 1.40303,3.23666 1.40304,3.2367 4.29409,-3.10037 c 4.26323,-3.07806 9.13614,-6.81231 10.12065,-7.75575 0.28241,-0.27057 -0.0823,-0.6918 -0.81038,-0.93601 z m -2.6145,7.0394 c -2.37621,1.85894 -5.92415,4.38945 -7.88431,5.62326 -3.40305,2.14216 -3.63631,2.15452 -5.16711,0.27451 -2.06681,-2.53821 -3.89045,-7.91002 -3.03655,-8.94459 0.36409,-0.44113 2.52061,-1.94008 4.79227,-3.331 l 4.13027,-2.52895 -1.23352,-1.48882 c -1.13719,-1.37256 -1.29878,-1.31257 -2.06911,0.76806 -0.62416,1.6858 -1.50134,2.54114 -3.46655,3.3802 -3.31247,1.41428 -5.45549,-0.1741 -6.27618,-4.6518 -0.77077,-4.20542 0.94027,-6.28312 6.73154,-8.17404 l 4.47999,-1.46279 3.20831,3.47623 c 1.76458,1.91193 4.40595,4.35561 5.86973,5.43043 1.46378,1.07479 3.55836,2.61529 4.65461,3.42332 2.45129,1.80679 1.63291,3.22557 -4.73336,8.20599 z m 3.53818,-14.82271 c -0.38552,0.0369 -0.13411,0.49696 0.55869,1.02237 0.76562,0.58063 1.04052,0.55434 0.70096,-0.0671 -0.30729,-0.5623 -0.87413,-0.99219 -1.25963,-0.95534 z m 5.76525,5.28742 c -2.99629,-1.03366 -9.60585,-5.49542 -11.05482,-7.46252 -2.43507,-3.30581 -0.20669,-3.84822 3.48923,-0.84932 1.84792,1.49947 4.84417,3.25838 6.65827,3.90874 4.42767,1.58735 5.09568,2.2416 3.84096,3.76178 -0.62101,0.75241 -1.83947,1.01878 -2.93364,0.64132 z m -0.75766,-27.56053 c -0.98006,0.47495 -2.42594,2.02968 -3.21305,3.45494 -2.37285,4.29663 -1.18996,4.17302 2.00192,-0.20921 2.46143,-3.37937 2.67656,-3.95589 1.21113,-3.24573 z m -1.98433,14.02723 c -0.57402,-0.18106 -0.17688,0.3684 0.88255,1.22104 1.05944,0.85262 1.52908,1.00079 1.04367,0.32921 -0.4854,-0.67157 -1.35221,-1.36918 -1.9262,-1.55029 z m 12.41112,-14.79967 c -1.71662,-0.54933 -1.53466,-0.23791 1.14527,1.96003 2.74903,2.25465 3.02904,2.34423 2.04087,0.65309 -0.72728,-1.24466 -1.89015,-2.19839 -3.18617,-2.61309 z m -7.25004,17.25448 c -0.7103,-0.23824 -1.26765,-0.18433 -1.23855,0.11979 0.0291,0.30412 0.51355,0.61619 1.07658,0.69349 1.53135,0.21026 1.63669,-0.31866 0.16197,-0.81328 z m 2.26984,-5.25648 c -1.30402,0.003 -1.91712,-0.45696 -2.67202,-2.00682 -1.76745,-3.62874 2.61036,-6.07385 5.40144,-3.01682 1.59151,1.74314 -0.1871,5.01676 -2.72942,5.02364 z m 7.0714,-4.77735 c -0.17537,-2.06089 -3.914,-5.25722 -6.14212,-5.2512 -4.79895,0.013 -8.87192,5.61194 -6.95114,9.55548 2.95154,6.05979 13.67523,2.53447 13.09326,-4.30428 z m 3.04487,3.17467 c 0.0872,-1.45946 -0.32445,-1.1542 -2.5182,1.8674 -1.74115,2.3982 -3.51605,3.9936 -5.28151,4.74738 -3.50419,1.49613 -2.78745,1.9845 0.99229,0.67611 3.35758,-1.16225 6.65205,-4.6907 6.80742,-7.29089 z m -5.31669,9.35755 c -4.47123,2.00281 -8.64188,1.29439 -12.86469,-2.18516 -10.26639,-8.45935 -0.96127,-24.2542 12.12549,-20.5823 11.54612,3.23963 12.01614,17.71615 0.7392,22.76746 z m 25.22605,-24.10142 c -0.46977,-4.00389 -1.04333,-4.05274 -6.50567,-0.55419 -2.20517,1.4124 -4.39715,2.7944 -4.87106,3.07112 -0.47391,0.27672 -0.28665,2.4506 0.41614,4.83085 l 1.2778,4.32772 2.54387,-1.85345 c 7.15031,-5.20966 7.60645,-5.83722 7.13892,-9.82205 z m -2.64149,9.58101 c -8.38542,6.57357 -9.4616,6.63385 -10.60856,0.59416 -0.36397,-1.91666 -0.93851,-4.49438 -1.27675,-5.72827 l -0.61498,-2.24344 5.59574,-3.79717 c 9.62508,-6.53143 11.55676,-6.36634 12.2661,1.04833 0.45894,4.79714 -0.23477,6.10736 -5.36155,10.12639 z m -29.08403,31.61489 c -1.48463,0.20268 -16.10417,11.76647 -15.50304,12.26259 0.27139,0.224 2.79447,-1.42022 5.60685,-3.65378 2.81237,-2.23364 5.94407,-4.57766 6.95934,-5.209 2.51887,-1.56636 4.25853,-3.58024 2.93685,-3.39981 z m -4.17849,8.78649 c -0.69915,-0.57705 -1.50726,-0.76314 -1.79579,-0.41355 -0.28854,0.34952 -0.11942,0.97001 0.37583,1.37877 0.49522,0.40877 0.74959,1.2198 0.56525,1.80229 -0.18434,0.5825 0.21858,0.43416 0.89537,-0.32957 0.88033,-0.99348 0.86876,-1.68732 -0.0406,-2.43794 z m 16.96443,-18.65285 c -1.85403,0.44039 -4.755,3.08408 -4.0357,3.67777 0.50654,0.41808 3.69785,-1.45515 4.91793,-2.88671 1.05493,-1.23775 1.04308,-1.24837 -0.88221,-0.79109 z m 22.01143,-17.98643 c -0.14142,-0.41668 -3.06646,1.5887 -6.50009,4.45638 -3.43364,2.86768 -6.74192,5.52346 -7.35172,5.90172 -0.88135,0.54668 -0.80754,0.6706 0.35978,0.60414 0.8077,-0.046 3.80761,-1.89772 6.66648,-4.11497 6.06795,-4.70615 7.17525,-5.81695 6.82555,-6.84727 z m 0.35265,28.06128 c 0.64503,-2.35013 0.91855,-4.2486 0.60782,-4.21884 -0.3108,0.0298 -7.28382,5.28838 -15.49567,11.68583 -8.21179,6.39756 -15.68927,12.20784 -16.61662,12.91173 l -1.68607,1.27979 3.59875,-0.23545 c 2.86704,-0.18765 14.44947,-4.85536 21.31305,-8.58925 2.39427,-1.30254 7.12983,-8.63832 8.27874,-12.83381 z m -8.56203,16.03819 c -7.73876,4.37292 -17.35552,8.07186 -21.4635,8.25556 -6.54308,-0.34819 -6.73063,-1.84778 -8.33465,-2.91684 -7.75017,-3.00808 -6.26031,-1.84416 -8.76864,-5.81943 -0.14267,-0.42031 -1.37937,-0.73694 -2.7482,-0.70348 -1.36884,0.0338 -2.71063,-0.1223 -2.98175,-0.34605 -1.01735,-0.83971 -0.80529,-4.16211 0.31459,-4.92871 0.64014,-0.43827 4.94898,-3.80369 9.57519,-7.47887 7.6126,-6.04758 8.54103,-6.57496 9.77778,-5.5542 1.64574,1.35835 1.96142,3.5143 0.73257,5.00315 -0.49517,0.59994 -0.36096,2.16839 0.29824,3.48542 0.6592,1.31712 0.93147,2.90448 0.60503,3.5276 -0.32644,0.62305 0.91003,-0.0841 2.74772,-1.57153 3.08996,-2.50107 3.23496,-2.75373 1.92801,-3.35985 -0.93874,-0.43535 -1.12846,-1.00042 -0.56514,-1.68293 0.46645,-0.56514 0.41906,-1.38163 -0.10531,-1.81443 -0.52437,-0.4328 -0.6067,-1.20695 -0.18295,-1.72035 0.42374,-0.51339 0.30477,-1.0975 -0.26439,-1.29802 -2.31903,-0.81702 -1.97505,-3.10945 1.0091,-6.72499 3.75499,-4.54946 6.43174,-4.81022 10.50584,-1.02347 1.48298,1.37839 2.88971,2.27186 3.12607,1.98549 0.68515,-0.83011 2.26488,0.85742 1.89544,2.0248 -0.18912,0.59761 0.1134,0.56017 0.69425,-0.0859 0.75026,-0.83455 1.29972,-0.77037 2.02624,0.23661 0.54825,0.75989 1.21079,1.12239 1.4723,0.80553 0.26152,-0.31684 0.0465,-0.93019 -0.4779,-1.36298 -0.59322,-0.48963 -0.45793,-1.38719 0.35811,-2.3759 0.81606,-0.98871 0.95134,-1.88627 0.35811,-2.37589 -0.52436,-0.4328 -0.57344,-1.31482 -0.10906,-1.96005 0.80411,-1.11729 0.78676,-1.13162 -0.36441,-0.30078 -0.6648,0.47982 -1.60378,0.54632 -2.08662,0.14779 -0.48285,-0.39852 -2.18313,-0.59972 -3.7784,-0.44709 -3.25424,0.31132 -5.11054,-0.76401 -4.49369,-2.60316 0.55192,-1.64551 17.18673,-15.29503 18.79907,-15.42537 0.91911,-0.0743 1.28291,0.87035 1.3096,3.40053 0.0204,1.92687 0.37363,3.7813 0.78515,4.12095 0.41152,0.33965 0.15803,1.33259 -0.5633,2.20654 -0.86256,1.04505 -0.95684,1.88172 -0.27545,2.44412 0.85694,0.70729 0.55026,1.33157 -1.77424,3.61138 -1.54572,1.5159 -2.38532,2.50593 -1.8658,2.20009 1.5718,-0.92552 2.72181,0.74875 1.69481,2.46742 -0.5292,0.88559 -0.55242,1.82816 -0.0516,2.09461 0.50084,0.26645 0.39753,1.14291 -0.22948,1.94777 l -1.14031,1.46315 1.75518,-0.95565 c 3.12411,-1.70105 3.84892,0.39997 2.26161,6.55618 -1.78901,6.93894 -6.6973,14.19062 -11.40541,16.85108 z" />
    <path
       id="path2996"
       style="fill:#aa0202;fill-opacity:1"
       d="m 215.83583,710.85802 c -3.13013,-0.63002 -13.12982,1.35785 -17.69555,3.51778 -3.43502,1.62501 -5.64689,3.40712 -9.66337,7.78582 -3.27024,3.56515 -4.97301,5.87297 -4.57541,6.20114 0.61047,0.50386 18.07701,-8.17473 28.28576,-14.05434 2.72616,-1.57011 5.05657,-2.90941 5.17869,-2.97624 0.12213,-0.0668 -0.56645,-0.2802 -1.53012,-0.47416 z m 6.71703,31.25091 c -0.24129,-1.26798 -0.5336,-1.43253 -1.53726,-0.86536 -1.46399,0.82732 -3.68555,-0.73767 -3.20459,-2.25747 0.22953,-0.72527 0.0701,-0.77266 -0.50583,-0.15035 -0.46254,0.49981 -1.87451,1.34559 -3.13769,1.87951 -1.97103,0.83311 -2.12989,1.0267 -1.12041,1.36523 0.64698,0.217 0.915,0.71119 0.59562,1.09814 -0.3194,0.38699 0.26111,1.39843 1.29003,2.24766 3.04775,2.51553 8.29527,0.23096 7.62,-3.31746 z m -13.84388,8.86634 c -1.66571,-1.37482 -4.71212,-1.28839 -5.914,0.16778 -0.45648,0.55306 -2.74635,1.90517 -5.08858,3.00471 -7.14486,3.35406 -12.40502,6.46213 -12.53466,7.40634 -0.0677,0.49327 0.33114,1.96084 0.88637,3.26128 l 1.00952,2.36443 12.09781,-3.57525 12.0978,-3.57526 -0.55829,-3.9337 c -0.30705,-2.16353 -1.20524,-4.46768 -1.99597,-5.12033 z m 35.33783,-11.43953 c -0.57075,-0.47109 -1.19476,-0.11264 -1.83333,1.05312 -0.71158,1.29903 -1.39423,1.59576 -2.5766,1.1198 -0.88468,-0.35612 -2.11409,-0.36178 -2.73201,-0.0126 -0.64377,0.36379 -1.94621,-0.0442 -3.05024,-0.95538 -1.50301,-1.24053 -1.69599,-1.86983 -0.87753,-2.86147 0.57706,-0.69915 0.76318,-1.50726 0.4136,-1.79579 -0.91285,-0.75344 -1.89279,0.77067 -1.99157,3.09751 -0.0619,1.45897 0.71495,2.67812 2.87282,4.50831 2.54104,2.15511 3.25734,2.3795 5.08458,1.59255 2.87857,-1.23976 5.80553,-4.82558 4.69028,-5.74608 z m 11.52667,-9.07219 c -1.20141,-2.12598 -3.55336,-3.63423 -5.18346,-3.32401 -1.31322,0.2499 -1.36503,0.47623 -0.30858,1.34819 0.69826,0.57632 2.01583,1.96434 2.92793,3.08449 1.27472,1.56547 1.84259,1.81342 2.45472,1.07179 0.43799,-0.53067 0.48722,-1.51187 0.10939,-2.18046 z m -1.05907,5.9519 c -0.76169,0.24991 -2.20652,-0.12394 -3.21073,-0.83077 -1.0042,-0.7068 -2.18238,-1.19591 -2.61816,-1.08689 -1.44315,0.36104 -4.92692,-0.54287 -6.22659,-1.61558 -1.36724,-1.12848 -0.28642,-3.38359 1.1299,-2.35754 0.66875,0.48443 0.72993,0.41031 0.30602,-0.37076 -0.29145,-0.53699 -0.0469,-1.61958 0.54338,-2.40575 0.97514,-1.29875 0.91149,-1.31871 -0.69632,-0.21855 -1.34396,0.91963 -2.13863,0.86231 -3.30373,-0.23826 -1.10492,-1.04374 -2.09634,-1.1753 -3.54376,-0.47032 -2.69486,1.31259 -3.19515,2.03698 -2.05609,2.97713 0.55304,0.45646 0.47465,1.4014 -0.18667,2.25025 -1.12821,1.44809 -1.12288,1.45406 0.50727,0.57037 1.67425,-0.90756 4.70529,0.25901 8.22841,3.16689 1.00504,0.82952 2.06341,1.22221 2.35194,0.87263 0.28853,-0.34958 1.38266,0.0726 2.4314,0.93821 2.2012,1.81681 2.14076,1.92472 -4.14959,7.40968 -5.54169,4.83214 -7.60054,4.86982 -12.0664,0.22086 -3.19216,-3.32306 -4.12739,-7.58182 -2.18246,-9.93826 0.99466,-1.2051 0.42267,-2.96413 -1.71311,-5.26831 -1.50154,-1.61994 -3.93647,-0.52348 -3.17722,1.43072 0.28979,0.7459 0.31354,1.61467 0.0528,1.93059 -0.26076,0.31593 -0.23432,2.90563 0.0588,5.75486 0.58351,5.67272 -0.46705,7.79704 -4.763,9.63122 -2.92855,1.25037 -4.17893,0.73636 -10.91342,-4.48645 -4.59903,-3.56671 -5.17802,-3.80977 -6.9879,-2.93354 -1.7363,0.84058 -1.77491,0.95483 -0.3214,0.9509 2.07969,-0.006 3.4585,2.25265 1.90975,3.12786 -1.45078,0.81985 -0.74995,1.39763 2.54378,2.09743 1.43233,0.30423 3.37,1.18222 4.30594,1.9511 1.98875,1.63398 4.06931,9.51804 3.01912,11.44145 -0.39518,0.72379 -4.85022,2.5539 -9.90007,4.0669 -5.0497,1.51282 -10.93824,3.34436 -13.08549,4.06991 -2.72362,0.9203 -4.33752,0.96144 -5.33756,0.13603 -2.06372,-1.70333 -3.83044,-7.59605 -2.48662,-9.57101 -2.19389,-12.63185 -4.45473,-22.02874 -1.84143,-31.45952 1.03336,-3.37252 9.86933,-12.88489 14.67885,-15.80251 5.16947,-3.13596 16.71285,-4.95031 22.70526,-3.56871 4.98446,-0.11808 29.90579,7.79877 27.99511,12.69009 -0.3775,0.45739 -0.11417,0.66602 0.83739,0.66348 1.47037,-0.004 2.07643,0.3632 7.34062,4.44732 1.99206,1.54555 3.45501,3.27282 3.65299,4.31318 0.36196,1.90202 -1.6504,4.79831 -3.83097,5.51372 z m -36.43836,44.73146 c -2.14972,-1.77431 -6.97359,-12.8808 -6.07,-13.97558 1.13619,-1.37657 3.79773,-1.01794 5.03609,0.67862 2.21628,3.03627 4.6926,12.13317 3.64753,13.39935 -0.72894,0.88318 -1.45394,0.85478 -2.61362,-0.10239 z m 19.06851,-21.12665 c -0.17098,-0.50379 -2.13252,-2.69537 -4.35898,-4.87017 l -4.04811,-3.95417 -4.18599,1.62896 c -2.30229,0.89595 -4.39526,1.88253 -4.65103,2.19242 -0.25578,0.30989 0.33306,2.94645 1.30851,5.85902 0.97546,2.91257 2.09958,6.47917 2.49804,7.92576 0.39847,1.4466 0.97578,2.8376 1.28293,3.09111 1.24474,1.02737 12.72644,-10.18821 12.15463,-11.87293 z m -4.06044,9.40773 c -1.07333,0.25495 -2.71333,1.38656 -3.64444,2.51468 -0.93112,1.12812 -2.23996,2.36025 -2.90854,2.73807 -1.76081,0.99505 -4.34506,-1.50839 -5.54571,-5.37227 -0.57126,-1.8384 -1.81346,-5.75378 -2.76046,-8.70084 -1.37298,-4.27269 -1.445,-5.69366 -0.35551,-7.01367 1.8539,-2.24615 9.46867,-5.20948 11.39453,-4.43425 2.52505,1.01641 10.83191,9.61434 10.83623,11.21593 0.002,0.79481 -0.90764,2.37403 -2.02177,3.50938 -1.11411,1.13534 -1.98969,2.44032 -1.94571,2.89996 0.12053,1.2599 -0.88091,2.12809 -3.04862,2.64301 z m -19.31688,20.9332 c 0.55757,-5.15998 -0.533,-10.33346 -3.4121,-16.18653 -1.50788,-3.06545 -1.62302,-3.15522 -3.4953,-2.72511 -3.33737,0.76669 -15.60455,5.32683 -16.16888,6.01055 -0.59993,0.72686 1.17195,7.69737 2.16499,8.51699 0.34852,0.28766 2.27965,-0.22892 4.29142,-1.14797 4.78496,-2.18593 11.17433,-3.18446 12.63936,-1.97527 2.28846,1.88883 0.12124,4.10407 -6.65324,6.80071 l -6.50713,2.59021 1.84132,4.21626 c 1.01272,2.31896 2.005,4.35138 2.20507,4.51651 0.28033,0.23138 11.98871,-4.82272 12.44056,-5.37017 0.0551,-0.0668 0.34937,-2.42753 0.65393,-5.24618 z m -6.21754,10.73882 c -5.41693,2.48658 -7.10226,2.89733 -8.19321,1.99689 -1.32677,-1.09507 -6.18389,-9.97158 -6.51759,-11.91104 -0.09,-0.52339 2.09013,-1.64559 4.84482,-2.4938 2.75472,-0.8482 5.97229,-1.9489 7.15019,-2.44601 4.79788,-2.02486 -1.52079,-0.89311 -7.07727,1.26762 -3.53015,1.37277 -5.99369,1.83565 -6.69386,1.25774 -1.55513,-1.28356 -4.16304,-11.14186 -3.34419,-12.64158 1.08491,-1.98701 21.35988,-8.82078 22.75466,-7.66957 1.00681,0.83099 6.08247,13.77311 6.28831,16.03417 0.3415,3.7513 -0.61609,11.27117 -1.58904,12.47851 -0.4417,0.5481 -3.87196,2.40529 -7.62282,4.12707 z m 44.93242,-34.91166 c -0.52362,-0.0719 -3.59687,-3.1084 -6.82948,-6.74782 -4.82628,-5.43363 -5.69079,-6.77207 -4.83372,-7.48364 2.30205,-1.91119 14.75849,10.43676 13.27301,13.15741 -0.36179,0.66262 -1.0862,1.14594 -1.60981,1.07405 z m -4.23244,6.77968 c -3.40343,-5.18112 -4.44486,-6.2926 -5.54587,-5.91892 -0.39598,0.1344 -2.41812,1.88483 -4.49366,3.88985 -3.57588,3.45438 -3.68356,3.66466 -2.05422,4.01138 0.9457,0.20125 3.5265,1.52249 5.7351,2.93609 2.96324,1.89659 4.56246,2.41898 6.10208,1.99328 3.47859,-0.96184 3.51529,-1.95083 0.25657,-6.91168 z m 0.81254,9.46267 c -2.86411,0.83578 -3.97608,0.7114 -5.62508,-0.62918 -1.1304,-0.91899 -3.44924,-2.31243 -5.15294,-3.09654 -1.70371,-0.78411 -4.05935,-1.95304 -5.23476,-2.5976 l -2.1371,-1.17196 4.77447,-4.89217 c 2.62597,-2.69067 5.50231,-5.19081 6.39188,-5.55582 2.21491,-0.90885 4.54965,1.20265 9.10388,8.23341 4.33837,6.69754 4.07539,7.90185 -2.12035,9.70986 z m 13.39564,-34.11057 c -1.18189,0.49381 -2.14952,1.12384 -2.15029,1.40004 -0.002,0.74981 2.60702,-0.24925 3.51193,-1.34476 0.43392,-0.52533 -0.17722,-0.55014 -1.36164,-0.0553 z m 9.28363,1.90542 c -2.04564,-2.51224 -2.29449,-2.48597 -7.33183,0.77413 -2.19514,1.42067 -4.58003,2.69809 -5.29975,2.83871 -1.82305,0.35619 -3.86122,-1.51327 -2.90842,-2.66767 0.43717,-0.52966 0.22193,-1.4197 -0.48428,-2.00259 -1.48453,-1.22528 -0.26591,-3.19763 1.59089,-2.57484 0.69046,0.23157 1.58421,0.0227 1.98614,-0.46435 0.40193,-0.48696 0.98882,-0.6724 1.3042,-0.4121 0.51501,0.42508 4.69449,-1.67707 5.65992,-2.84675 0.21273,-0.25774 -0.38073,-1.31759 -1.31881,-2.35523 -2.05675,-2.27504 -2.71284,-2.06273 -9.22467,2.98507 -6.55286,5.0796 -7.2793,6.06684 -5.535,7.52206 0.78288,0.65365 2.6462,2.91128 4.14016,5.01762 2.61756,3.69052 2.79693,3.81438 4.93472,3.40761 1.22013,-0.23215 2.62205,-0.87722 3.11536,-1.43346 0.49329,-0.55624 2.99783,-1.92208 5.56558,-3.0352 5.98499,-2.59449 5.77596,-2.33344 3.80579,-4.75301 z m -1.82785,6.91984 c -2.92778,1.10983 -5.82333,2.61683 -6.43457,3.3489 -0.61151,0.73183 -2.48631,1.5155 -4.16685,1.74097 -2.462,0.33031 -3.31819,0.0474 -4.4078,-1.45666 -0.74375,-1.02664 -3.13901,-3.96268 -5.32281,-6.52453 -2.1838,-2.56187 -3.99258,-4.88828 -4.01951,-5.16981 -0.0566,-0.59198 12.72111,-11.03204 15.29613,-12.4977 1.43526,-0.81694 2.20632,-0.58872 4.5519,1.34724 3.85778,3.1841 4.43208,4.4782 2.84219,6.40448 -1.26555,1.53331 -1.23443,1.61161 0.46801,1.17797 1.49489,-0.38076 2.24909,0.0184 4.18355,2.21418 2.83035,3.21269 3.93497,5.65512 3.01169,6.65909 -0.37327,0.4059 -3.07414,1.64604 -6.00193,2.75587 z m -53.7218,66.25843 c -2.00061,-1.65124 -1.28361,-3.60492 1.65781,-4.51717 3.63619,-1.12773 4.52081,0.31159 2.0097,3.26988 -1.89165,2.22844 -2.3074,2.36988 -3.66751,1.24729 z m 15.03855,-31.73404 c -1.54053,0.14738 -1.15642,2.03683 0.45918,2.25865 0.75138,0.10317 1.00967,-0.20976 0.92278,-1.11803 -0.0869,-0.90825 -0.4737,-1.22751 -1.38196,-1.14062 z m 0.94863,5.17793 c -0.76574,0.0733 -2.13589,-0.4806 -3.04479,-1.23078 -3.35093,-2.76576 -1.41803,-7.25137 2.91837,-6.77252 2.26799,0.25045 2.50206,0.44363 3.17798,2.623 0.78187,2.52099 -0.71295,5.15656 -3.05156,5.3803 z m 4.76273,-2.28819 c 1.02649,-4.75143 -1.30969,-7.92349 -5.63106,-7.64581 -3.6921,0.23725 -6.20532,3.47393 -5.43746,7.00272 0.77925,3.58112 3.01928,5.28929 6.49952,4.95634 3.32911,-0.31848 3.80251,-0.76538 4.569,-4.31325 z m -5.18659,7.41743 c -3.26939,-0.0769 -6.66971,-2.63323 -8.16692,-6.13992 -1.35722,-3.17884 -0.899,-5.35827 1.8189,-8.65121 1.72282,-2.08733 2.90613,-2.70318 5.70924,-2.97134 3.19045,-0.30524 3.79903,-0.0663 6.22767,2.44572 3.77534,3.90487 3.77274,7.38569 -0.009,11.96747 -2.41948,2.93139 -3.20857,3.40503 -5.57997,3.34928 z m 10.00926,-8.04582 c 0.70041,-6.34272 -4.78859,-11.47506 -11.57784,-10.82554 -3.2656,0.31241 -4.22731,0.82192 -6.30669,3.34126 -1.99635,2.41874 -2.39475,3.58702 -2.13809,6.2699 0.1735,1.8135 1.25346,4.61746 2.3999,6.23101 1.76916,2.49 2.5825,3.0532 5.37721,3.72342 5.94496,1.4257 11.56597,-2.58623 12.24551,-8.74005 z m -5.10372,10.76567 c -4.17738,2.0416 -7.79051,1.38808 -12.13066,-2.19415 -4.06876,-3.35823 -6.34262,-8.393 -5.51683,-12.21537 0.98952,-4.58029 6.37267,-9.73177 10.69993,-10.23947 8.66477,-1.01663 16.35899,7.37519 14.34284,15.64322 -1.10392,4.52711 -3.02958,6.87215 -7.39526,9.00578 z m -13.81122,23.13345 c -2.92472,0.27981 -4.53035,-0.98451 -3.23831,-2.54991 0.95455,-1.15652 5.1259,-1.23506 6.47457,-0.12193 1.09248,0.90172 -0.76524,2.43545 -3.23626,2.67184 z m -3.79211,-21.83018 c -0.83306,-0.68758 -2.92728,-0.32 -6.67272,1.17122 l -5.4586,2.17329 1.68785,1.3931 c 0.92831,0.76622 1.99671,2.14582 2.3742,3.06579 0.63167,1.53943 0.87586,1.44306 3.06552,-1.20988 1.33516,-1.61765 2.6766,-2.63705 3.05698,-2.3231 0.37279,0.3077 1.23651,-0.3018 1.91935,-1.35444 0.87125,-1.34307 0.87943,-2.21275 0.0274,-2.91598 z m 18.77327,15.22774 c -2.1271,0.78457 -3.65372,-0.64824 -2.36033,-2.21528 1.26185,-1.52884 -0.57894,-3.3855 -2.91568,-2.94081 -1.84592,0.35128 -3.6601,-0.93139 -3.83006,-2.70794 -0.0852,-0.89077 -0.41673,-0.7054 -1.15773,0.64732 -0.86498,1.57906 -1.27527,1.69992 -2.45772,0.72395 -1.10021,-0.90806 -1.11278,-1.39278 -0.056,-2.15526 1.29906,-0.93725 1.23642,-1.01117 -1.32615,-1.56478 -2.30377,-0.49771 -2.84674,-0.27465 -3.78488,1.55489 -0.64559,1.259 -1.53548,2.07552 -2.16747,1.98875 -0.63948,-0.0878 -1.52369,0.73325 -2.19088,2.03439 -1.45315,2.83387 -2.69509,2.40907 -7.5875,-2.59524 -2.65964,-2.72047 -3.65936,-4.27581 -3.34698,-5.20717 0.42446,-1.26552 12.39864,-6.99425 13.39645,-6.40919 0.25815,0.15142 2.26745,1.67028 4.46503,3.37532 3.12383,2.42367 4.87367,3.19297 8.01997,3.52587 4.52404,0.47868 5.86517,1.34065 7.07828,4.54931 0.4616,1.22092 1.47444,2.76116 2.25077,3.42273 1.53502,1.3081 0.68526,2.97194 -2.02916,3.97314 z m -9.00179,14.03099 c -1.36687,0.13077 -3.12701,-1.82166 -2.41736,-2.68145 1.12621,-1.3645 4.30777,-1.84212 4.69383,-0.70464 0.3901,1.14938 -1.03372,3.26719 -2.27647,3.38609 z m 37.13109,-44.86669 c -1.50637,-0.50524 -1.73286,-0.86008 -6.72259,-10.53263 -4.74497,-9.19808 -5.05916,-10.00713 -4.37386,-11.26225 1.68887,-3.09317 5.98948,2.10967 11.11062,13.44156 2.83328,6.26936 2.82813,9.30664 -0.0142,8.35332 z m -22.91602,26.24145 c -2.7335,-2.38626 -4.89494,-6.65337 -4.10558,-8.10524 0.65139,-1.19808 1.03774,-1.01215 3.71383,1.78721 3.13788,3.28241 4.02901,5.47156 2.8224,6.93347 -0.44831,0.54316 -1.37111,0.30951 -2.43065,-0.61544 z m 15.35855,-23.97612 c -1.36517,-3.25661 -2.74984,-6.14206 -3.07704,-6.41212 -0.3272,-0.27006 -1.73871,0.26327 -3.1367,1.18517 -2.31452,1.52633 -2.48005,1.87526 -1.85133,3.90243 0.37974,1.22443 0.16255,3.55438 -0.48268,5.17765 -0.64521,1.62328 -1.23897,3.34801 -1.31947,3.83275 -0.135,0.81301 11.25769,-0.48862 12.01388,-1.3726 0.18446,-0.21573 -0.78149,-3.05668 -2.14666,-6.31328 z m -3.32723,10.38197 c -5.57481,0.95764 -8.01387,0.96252 -9.15783,0.0183 -1.12298,-0.92688 -1.27259,-1.63424 -0.53471,-2.52824 1.59672,-1.93455 2.42697,-5.78265 2.01116,-9.32155 -0.32271,-2.74667 -0.0557,-3.48586 1.78384,-4.9392 3.31302,-2.61742 6.71636,-3.82907 7.92818,-2.82256 1.75489,1.45805 6.96803,15.72468 6.23554,17.06573 -0.36811,0.67391 -4.0764,1.80778 -8.26618,2.52749 z m -6.12428,22.40476 c -1.80512,-0.60545 -2.90889,-2.74706 -1.77984,-3.45338 0.50611,-0.31663 1.58757,-0.0248 2.40325,0.6484 1.74206,1.43784 1.2952,3.44849 -0.62341,2.80498 z m 38.04792,-48.80934 c -1.20607,-2.92224 -1.42534,-3.12834 -2.77162,-2.60528 -3.66432,1.42366 -10.24605,2.52512 -11.38215,1.90481 -1.92908,-1.05328 1.49092,-4.61053 6.11242,-6.3577 2.12544,-0.80355 3.93941,-1.55182 4.03103,-1.66283 0.51003,-0.61793 -4.67941,-7.6768 -5.58033,-7.59061 -0.5778,0.0553 -4.00486,1.70423 -7.61569,3.66434 l -6.56512,3.56384 4.04452,7.29847 c 2.22449,4.01416 4.17861,8.00311 4.34249,8.86433 0.1639,0.86122 0.62314,1.53475 1.02055,1.49673 1.81597,-0.17373 15.53398,-4.50863 15.59969,-4.92952 0.0406,-0.26031 -0.51547,-1.90127 -1.23579,-3.64658 z m -6.03604,9.21141 c -5.64324,1.73482 -9.0575,2.32918 -9.81035,1.7078 -0.63509,-0.52418 -2.65474,-4.11835 -4.4881,-7.98703 -1.83336,-3.86867 -4.09087,-7.96421 -5.01667,-9.10119 -0.92581,-1.13697 -1.50721,-2.59218 -1.29202,-3.23378 0.44291,-1.3205 7.76948,-5.82486 13.78002,-8.47192 4.5658,-2.01079 5.55146,-1.55398 9.21851,4.27234 3.10798,4.93806 3.23516,6.38975 0.65649,7.49359 l -2.01764,0.86368 2.55476,-0.2957 c 1.4051,-0.16264 2.75589,-0.12518 3.00176,0.0833 0.24593,0.20833 1.23782,2.47951 2.2044,5.04681 1.0982,2.917 1.40237,5.09797 0.81092,5.81456 -0.52055,0.63069 -4.84149,2.3441 -9.60208,3.80757 z m -24.67143,23.28306 -7.0877,0.67807 2.76785,2.6806 c 2.15214,2.0843 2.682,2.34352 2.38189,1.16526 -0.61399,-2.41053 1.58728,-4.45664 3.29719,-3.06477 2.43967,1.98584 5.92131,1.35358 5.78847,-1.05119 -0.0373,-0.67638 -2.73349,-0.83027 -7.1477,-0.40797 z m 8.62466,6.55148 c -0.80721,0.29667 -2.27207,0.15664 -3.25526,-0.31117 -1.28233,-0.61016 -2.51548,-0.3106 -4.36279,1.05984 -2.41082,1.78849 -2.70985,1.78448 -4.68505,-0.0629 -6.53699,-6.11393 -6.87171,-6.53239 -6.20351,-7.75565 0.84163,-1.54077 17.31942,-3.67517 18.81878,-2.43765 0.93155,0.76888 2.10055,7.96806 1.41214,8.69652 -0.14114,0.14938 -0.9171,0.51432 -1.72431,0.81099 z m 7.18607,-3.83401 c -1.28256,-1.05858 -5.92332,-15.47525 -5.44275,-16.90806 1.22925,-3.66498 4.55341,-1.04192 6.12194,4.83075 0.63899,2.39241 1.35491,5.71802 1.59093,7.39026 0.44317,3.13984 -0.86709,5.84507 -2.27012,4.68705 z m 1.49212,9.42561 c -1.75006,-0.58697 -1.98747,-3.63476 -0.35499,-4.55728 1.51208,-0.85449 2.7512,-0.0469 2.93894,1.91542 0.1856,1.94011 -1.01536,3.16798 -2.58395,2.64186 z m 18.2429,-30.63224 c -0.55682,-1.357 -1.68362,-1.26 -7.90244,0.68028 -3.98917,1.24463 -7.45727,2.67792 -7.70688,3.18511 -0.66073,1.34249 3.24004,13.78547 4.21762,13.45367 0.9415,-0.31954 0.61513,-5.81579 -0.39484,-6.6494 -0.36547,-0.30164 -0.30253,-0.98698 0.13985,-1.52297 1.11497,-1.35087 8.53022,-4.50811 10.60112,-4.51372 1.88441,-0.005 2.26058,-1.67191 1.04557,-4.63297 z m 2.81917,17.64899 c -1.73026,0.18813 -3.49268,0.0559 -3.91648,-0.29393 -0.42381,-0.3498 -1.14343,-0.18425 -1.59916,0.3679 -0.60815,0.73682 -1.23433,0.54834 -2.35379,-0.70856 -0.83887,-0.94185 -1.26644,-1.29771 -0.95025,-0.79071 0.85913,1.37701 -0.60702,2.6977 -3.90762,3.51989 -2.98229,0.74292 -5.94057,-0.65913 -5.66259,-2.6837 0.0795,-0.57924 -0.77267,-3.95065 -1.89376,-7.49206 -1.23967,-3.91597 -1.67914,-6.87414 -1.12159,-7.54965 0.92125,-1.11616 12.90378,-5.52489 16.48201,-6.06421 2.66865,-0.40222 4.32476,1.23483 5.24648,5.18611 0.97099,4.16253 -0.0154,5.44554 -5.00043,6.50429 -5.49629,1.16733 -5.31552,1.62257 0.44702,1.12575 2.71315,-0.23392 5.18358,-0.21848 5.48985,0.0343 0.30627,0.2528 1.2545,1.84927 2.10716,3.54772 1.80939,3.6042 1.03786,4.81799 -3.36693,5.29694 z m -1.32739,6.65168 c -1.87803,0.13915 -3.53262,0.39602 -3.6769,0.57081 -0.14426,0.17478 1.27427,0.20393 3.15229,0.0648 1.87803,-0.13915 3.53263,-0.39602 3.6769,-0.57081 0.14426,-0.17479 -1.27427,-0.20394 -3.15229,-0.0648 z m 1.46113,1.78041 c -2.79233,0.36214 -7.12303,0.99527 -9.62379,1.40696 -4.47768,0.73714 -7.2202,-0.086 -5.84357,-1.75386 0.87276,-1.05742 20.13583,-3.85444 21.09475,-3.06298 1.58543,1.30857 -0.86261,2.79194 -5.62739,3.40988 z" />
    <g
       id="g4556"
       style="opacity:0.6872428">
      <path
         sodipodi:nodetypes="cccccccccccccc"
         inkscape:connector-curvature="0"
         id="path4383"
         d="m 337.54343,862.91093 c -1.35115,-3.08738 -2.68237,-6.67898 -1.45359,-10.01635 1.85565,-1.11799 6.58311,1.75965 6.94603,3.43411 1.85308,0.25394 2.44184,1.00027 1.00088,3.57689 -0.078,4.14833 5.1966,4.39566 6.32249,0.71627 1.71352,-2.27819 1.07231,-7.3036 4.04344,-7.9206 1.71427,1.18787 -0.29219,3.80942 1.09197,5.62919 0.63171,2.72612 1.53392,6.1899 0.74899,8.49698 -2.06119,1.32271 -6.54579,-3.81369 -5.73683,0.55119 1.40794,3.06098 0.16964,6.13753 -2.07885,8.34445 -0.54112,1.89529 0.38526,5.31111 -2.92283,4.74936 -3.99882,-0.0111 -5.24782,-4.53111 -4.67079,-7.78219 1.09349,-2.77699 1.57484,-5.90056 -1.5426,-7.61692 -0.69227,-0.6325 -1.08771,-1.50207 -1.74831,-2.16238 z"
         style="fill:#aa0202;fill-opacity:1;stroke:none" />
      <path
         inkscape:connector-curvature="0"
         id="path4385"
         d="m 328.87136,842.23139 c -3.03635,0.0768 -7.08562,-1.09838 -7.48177,-4.6349 0.15437,-4.22178 5.08073,-2.17197 7.63916,-3.38929 2.60714,-1.21211 8.58655,2.13178 4.67886,4.50016 -2.23104,0.8235 -0.42163,5.41992 -3.72361,3.7897 l -0.56318,-0.17069 -0.54946,-0.095 z"
         style="fill:#aa0202;stroke:none;stroke-width:1px;stroke-linecap:butt;stroke-linejoin:miter;stroke-opacity:1;fill-opacity:1" />
      <path
         inkscape:connector-curvature="0"
         id="path4387"
         d="m 342.213,889.5942 c -1.90899,2.93661 -2.39502,8.02654 1.72704,9.25767 2.61131,2.05927 6.53753,1.15513 6.28145,-2.58887 0.89374,-3.52664 -1.83572,-6.26542 -3.19285,-9.14738 -2.34833,-3.06715 -5.82893,-1.14196 -4.81564,2.47858 z"
         style="fill:#aa0202;stroke:none;stroke-width:1px;stroke-linecap:butt;stroke-linejoin:miter;stroke-opacity:1;fill-opacity:1" />
      <path
         sodipodi:nodetypes="ccccc"
         inkscape:connector-curvature="0"
         id="path4389"
         d="m 356.8888,843.06525 c -0.51112,-3.42747 -2.32522,-5.89731 -0.50301,-9.21207 -0.34115,-2.61758 3.87552,-5.57989 4.39372,-1.69255 -0.0516,3.21504 0.8722,6.99885 -0.5959,9.87746 -0.90366,0.991 -2.34521,1.66458 -3.29481,1.02716 z"
         style="fill:#aa0202;fill-opacity:1;stroke:none" />
    </g>
    <g
       id="g4610">
      <path
         sodipodi:nodetypes="ccccccc"
         inkscape:connector-curvature="0"
         d="m 134.34923,704.5806 c 66.39305,130.5769 114.45218,291.00905 114.45364,291.0139 m -114.45364,-291.0139 1.57912,-1.98591 2.97373,0.27756 c 66.39304,130.57689 114.45231,291.00924 114.45364,291.0139 l -4.55285,1.70835"
         style="opacity:0.47325104;fill:none;stroke:#000000;stroke-width:3;stroke-linecap:butt;stroke-linejoin:miter;stroke-miterlimit:4;stroke-opacity:1;stroke-dasharray:none"
         id="path4418-9" />
      <path
         sodipodi:nodetypes="ccccccccccccccccccc"
         inkscape:connector-curvature="0"
         id="path4439"
         d="m 134.38008,704.58795 c -2.61321,12.74916 -8.57787,22.87352 -17.58518,31.99037 -11.91799,11.01871 -16.3986,28.50603 -31.069078,36.77531 -11.372674,6.28434 -13.631843,20.52726 -21.742127,29.81285 -8.610192,7.16291 -12.385586,18.37808 -21.839335,24.47326 -9.76342,6.38654 -11.877622,18.90708 -16.415651,28.91802 -4.012381,10.46573 4.98705,18.76079 6.419783,28.45416 -2.950611,12.06538 14.597246,16.30395 12.025614,28.3943 3.416469,7.01144 9.987462,14.89814 9.600381,20.28974 9.746381,0.74186 10.576755,-10.92724 17.646126,-16.13317 9.0724,-12.25258 22.056957,-24.27331 38.312787,-24.03557 13.32712,-1.16863 25.19978,-8.25844 38.59724,-8.90756 13.82745,-0.32024 20.7481,-13.30283 32.20266,-18.83181 6.52019,-4.626 12.80347,-10.35129 21.285,-8.56391 -8.02872,-6.92879 -12.37106,-17.48438 -19.66712,-25.36956 -8.21117,-11.36785 -16.93431,-22.78704 -22.14323,-35.87362 -4.90596,-15.83143 -9.78045,-31.77073 -16.56887,-46.8737 -4.32658,-10.41145 -7.29493,-21.41229 -6.56811,-32.76827 -0.10525,-4.4888 -1.84474,-7.30204 -2.49089,-11.75084 z"
         style="opacity:0.53497943;fill:#cc0202;fill-opacity:1;stroke:#000000;stroke-width:0.33250698px;stroke-linecap:butt;stroke-linejoin:miter;stroke-opacity:1" />
      <path
         sodipodi:nodetypes="cccccccccccccccccccccccccccc"
         inkscape:connector-curvature="0"
         id="path4444"
         d="m 201.60916,856.23441 c -1.76199,0.3427 -3.47982,-1.23286 -4.88115,-2.03574 -1.47615,-0.73736 -0.71803,-3.4472 -2.90758,-3.11513 -1.28349,-1.20958 -3.16961,-0.20177 -4.46927,-1.35465 -0.68369,-1.55238 1.99721,-1.35397 2.92232,-0.89193 1.07715,0.44741 -2.13628,-0.38339 -2.09129,-1.29855 -0.50934,-1.84517 -2.75605,-1.92435 -3.72397,-3.44584 -0.65636,-0.13498 -1.22062,-2.29993 -0.98482,-0.8971 -0.19734,-1.0632 -1.51078,-0.58857 -1.89355,-1.17576 -1.84202,0.12574 -3.38176,-0.55943 -4.79528,-1.64526 -1.48219,-1.41423 -3.16481,-2.11885 -4.59986,-3.53326 0.62693,-0.61286 -1.42365,-1.16037 -1.65177,-1.57648 -1.04243,-1.06107 -2.69465,-0.9106 -2.77304,-2.44098 -1.47664,-1.12919 -3.46974,-1.38712 -4.81387,-2.67545 -1.02797,-0.25052 -1.87855,-1.78242 -2.08198,-1.62816 -1.17406,-0.64141 -2.91504,-0.59808 -2.2414,1.18367 0.24463,1.0776 1.2991,1.82274 1.80706,2.56567 0.99456,-0.33148 1.11664,1.19951 1.83696,1.0034 1.14613,1.48607 3.53375,1.7173 4.10337,3.70777 0.43673,0.86822 1.29939,0.26607 1.17911,1.4262 1.02842,1.47227 2.89393,2.07749 4.21103,3.28152 1.4237,1.31666 3.24244,1.97906 4.567,3.12291 1.58723,0.94494 2.02083,3.17872 3.8516,4.06102 1.87898,0.73094 3.44789,2.30944 5.56447,2.67007 1.39092,1.37041 3.06525,1.79503 4.70863,2.61624 1.56176,0.45853 3.12705,0.75479 4.67141,1.23962 0.87376,0.43873 2.72814,1.16363 1.99781,0.62004 0.75601,-0.30961 1.71796,0.4818 2.48806,0.21616 z"
         style="opacity:0.06172838;fill:#000202;fill-opacity:1;stroke:none" />
      <path
         sodipodi:nodetypes="ccccccccccccccccccccccccccccccccc"
         inkscape:connector-curvature="0"
         id="path4446"
         d="m 157.53406,878.98889 c -4.80274,1.89881 -10.57586,0.40157 -15.74822,0.88872 -3.72184,0.0256 -10.06621,-0.15993 -11.58017,-3.60351 -0.12965,-1.79178 5.97897,-6.01185 2.20053,-5.71815 -2.13334,0.74579 -5.74962,5.04089 -6.26356,4.50671 0.25669,-3.4652 3.61024,-5.84302 3.30622,-9.01839 1.98315,-1.65921 -1.37864,1.90813 -1.01102,0.47652 -2.97891,2.27908 -7.02568,9.68392 -10.79622,4.57501 -1.17953,-2.50293 -3.32288,-5.35323 -5.69148,-1.83137 -1.86558,3.18093 -8.53746,1.09015 -8.4498,3.22873 -4.454707,2.46874 -8.880282,-2.23587 -13.313202,0.87703 -3.673015,0.93466 -8.787781,2.47338 -10.494087,-1.88924 -0.879285,-4.18476 -7.0366,-0.0701 -6.432165,-4.9783 -0.615514,-3.94595 1.515979,-7.19763 2.401755,-9.41785 -2.063363,2.23685 -6.645296,1.4411 -4.871776,-2.41943 3.388193,-3.25346 1.163674,-8.94007 -2.99256,-10.12624 -3.079577,-2.79829 -7.916998,-0.6294 -11.206889,-2.8207 -2.272522,0.44238 -8.343465,-0.89269 -7.998688,0.74027 1.064784,4.41604 4.076379,6.46971 7.886138,8.4136 3.134809,3.00978 -3.104901,5.52123 -2.468352,9.23774 -1.788522,4.96125 8.00983,1 4.716581,6.39792 -1.849869,2.81462 -1.583445,7.1365 -4.072549,9.43786 3.933066,3.56949 7.289814,-1.16086 11.194693,-1.6598 5.236719,-2.45012 -2.410732,3.21437 -3.35456,4.74646 -2.245044,3.58878 -1.702579,7.91287 0.992211,11.04688 -0.775859,4.33266 6.33464,0.19571 5.494126,5.12473 1.503749,4.40242 8.465069,4.67192 10.406564,0.2122 2.527346,-2.21486 7.84127,-2.37436 8.941958,1.31736 3.412582,-1.29787 5.093468,0.68972 4.946224,0.55246 12.772398,-5.5784 16.039328,-2.52662 26.078878,-5.46927 16.01983,-5.76973 25.19632,-7.16233 29.01483,-7.11592 5.39847,-1.14229 5.18999,-0.41742 10.52937,-3.13737 0,0 -0.74113,-1.70479 -1.36478,-2.57466 z"
         style="opacity:0.05761318;fill:#000202;fill-opacity:1;stroke:none" />
      <path
         inkscape:connector-curvature="0"
         id="path4448"
         d="m 69.697548,829.74722 c 1.556203,0.29843 2.72156,-1.68816 3.291434,-2.81659 0.865525,-1.39264 2.356045,-2.49253 2.145484,-4.33031 0.223335,-1.69746 1.443949,-3.00519 1.823825,-4.66526 0.640913,-1.14471 1.222651,-2.26888 1.595604,-3.54422 0.532065,-1.51243 1.352472,-2.90728 1.917408,-4.39746 0.149383,-1.74043 0.988969,-3.19023 1.55888,-4.78525 0.762511,-1.37326 1.890119,-2.5484 2.325863,-4.08919 1.270728,-2.77553 4.252688,-4.38165 5.188489,-7.36262 -0.282977,-0.91883 -2.588923,-0.19482 -3.490612,0.17876 -2.131111,0.54769 -2.132723,2.98518 -2.745494,4.69334 -0.974162,1.57943 -0.890819,3.63158 -1.755068,5.17852 -1.143182,1.20054 -2.058198,2.60944 -3.328235,3.70253 -1.256165,1.47054 -2.342469,3.03421 -3.078447,4.81211 -1.175255,1.44325 -1.362088,3.3714 -2.587349,4.77641 -1.538524,1.89828 -2.486228,4.20755 -2.894594,6.60553 0.672104,1.7267 -1.140801,3.43575 -0.335835,5.09601 0.12217,0.31616 0.231608,0.63743 0.368647,0.94769 z"
         style="opacity:0.06995886;fill:#000202;fill-opacity:1;stroke:none" />
    </g>
    <g
       transform="matrix(-0.33250699,0,0,0.33250699,-111.06914,103.64428)"
       id="g4592">
      <path
         style="fill:#aa0202;fill-opacity:1;stroke:none"
         d="m -811.24531,1794.624 c -0.7481,-7.0022 0.3655,-18.0625 -8.973,-19.4571 -8.8707,0.6735 -12.806,-6.9065 -18.8266,-11.6129 -5.6917,-5.276 -17.5017,-5.6631 -19.7381,3.2883 -2.6481,7.0982 3.06,16.0665 -4.5877,21.278 -4.2264,3.5042 -7.9577,11.6667 -2.3435,15.4914 7.5481,3.1074 15.9175,1.3663 23.7838,2.2135 7.9382,3.4967 0.3515,12.7887 -0.5383,18.4586 0.1675,8.2319 12.9844,8.0348 12.078,-0.8415 -1.9198,-7.4772 4.1661,-14.0704 11.8042,-11.6489 4.7433,2.0473 15.1955,4.6551 12.6531,-4.2323 -3.1882,-3.976 -8.9337,-6.739 -5.3119,-12.9371 z"
         id="path4351"
         inkscape:connector-curvature="0" />
      <path
         style="fill:#aa0202;fill-opacity:1;stroke:none"
         d="m -840.33551,1844.7795 c -6.2048,-4.1655 -14.916,2.5266 -9.9739,8.8017 2.9403,8.4163 14.3574,-0.5 9.9725,-6.9877 l 0.01,-0.9075 -0.01,-0.9065 8e-4,0 z"
         id="path4353"
         inkscape:connector-curvature="0" />
      <path
         style="fill:#aa0202;fill-opacity:1;stroke:none"
         d="m -878.45361,1806.6613 c 1.9265,-8.4203 -15.4334,-5.8645 -9.1629,0.725 2.9829,1.3357 6.2034,-0.083 9.1629,-0.725 z"
         id="path4357"
         inkscape:connector-curvature="0" />
      <path
         style="fill:#aa0202;fill-opacity:1;stroke:none"
         d="m -850.36661,1741.4592 c 1.1883,-7.2963 -2.2775,-16.1152 -9.9624,-18.0994 -5.5696,-4.7546 -10.8975,0.7285 -13.3172,5.1504 -4.9792,4.1458 -3.1186,12.0188 2.6178,13.7124 3.9282,6.2389 13.5066,6.0312 18.173,0.7711 0.7814,-0.5835 1.6008,-1.1258 2.4888,-1.5345 z"
         id="path4359"
         inkscape:connector-curvature="0" />
      <path
         style="fill:#aa0202;fill-opacity:1;stroke:none"
         d="m -790.18001,1817.6956 c 6.9473,5.8691 14.4939,-7.256 5.3081,-9.7307 -5.5626,-2.4367 -8.7374,6.174 -5.3081,9.7307 z"
         id="path4361"
         inkscape:connector-curvature="0" />
    </g>
  </g>
  <g
     inkscape:groupmode="layer"
     id="layer2"
     inkscape:label="genblur" />
</svg>
